<?xml version="1.0" encoding="UTF-8"?>
<svg version="1.1" xmlns="http://www.w3.org/2000/svg" width="500" height="500">
<path d="M0 0 C0.73089844 0.5775 1.46179688 1.155 2.21484375 1.75 C17.3345628 14.07961272 27.43900004 33.2758949 32 52 C32.33644531 53.35351562 32.33644531 53.35351562 32.6796875 54.734375 C37.89790126 80.0391376 32.15802245 106.22737062 18.2265625 127.73828125 C3.30971044 149.26116779 -18.60754985 162.64924836 -44.18896484 167.59204102 C-69.49599535 171.2647914 -96.22379399 166.26666398 -117 151 C-119.90563898 148.68462844 -122.76692462 146.33345626 -125.58984375 143.91796875 C-127.68593566 142.24992802 -129.55969177 141.07011196 -132 140 C-132.62003906 140.61746094 -133.24007812 141.23492187 -133.87890625 141.87109375 C-150.80042213 158.0536788 -171.68813915 166.8909868 -195.1875 167.3125 C-221.37056115 166.59515586 -242.91588476 156.92300557 -261.33984375 138.68359375 C-278.38599413 120.39415409 -286.88651023 95.99861132 -286.25 71.18359375 C-285.25164348 49.97350939 -277.18064298 29.85958978 -263 14 C-262.26136719 13.16726562 -261.52273438 12.33453125 -260.76171875 11.4765625 C-245.32676885 -4.94359697 -222.85706138 -14.93184402 -200.4140625 -16.203125 C-176.08158193 -16.50414538 -153.13962441 -9.87406922 -135 7 C-131.33275807 5.45722926 -129.01063491 3.20859556 -126.1875 0.4375 C-112.21355423 -12.42298395 -94.67444082 -19.99796223 -76 -23 C-75.07445312 -23.1546875 -74.14890625 -23.309375 -73.1953125 -23.46875 C-46.74663061 -26.76546956 -19.75576139 -17.52926235 0 0 Z " fill="#A55927" transform="translate(455,162)"/>
<path d="M0 0 C2.38258003 4.67352236 1.94958822 9.03917012 1.625 14.1875 C1.295 14.1875 0.965 14.1875 0.625 14.1875 C0.56892578 13.28257812 0.56892578 13.28257812 0.51171875 12.359375 C0.06246659 6.19382228 0.06246659 6.19382228 -3.375 1.1875 C-10.47749674 1.44577261 -14.92003546 3.65091691 -20.375 8.1875 C-23.05969288 11.1880391 -23.60637839 13.26658432 -23.4375 17.1875 C-22.7756379 20.79021329 -21.46433123 23.13901041 -18.390625 25.33984375 C-14.17053177 27.11457288 -9.82654734 26.92709878 -5.375 26.1875 C-1.28168947 23.62918092 -0.05597248 19.55802845 1.625 15.1875 C6.37373033 17.40278859 10.76075315 19.56476858 14.625 23.1875 C14.625 23.8475 14.625 24.5075 14.625 25.1875 C15.285 25.1875 15.945 25.1875 16.625 25.1875 C16.81835938 25.93515625 17.01171875 26.6828125 17.2109375 27.453125 C17.60152344 28.93039063 17.60152344 28.93039063 18 30.4375 C18.25523437 31.41203125 18.51046875 32.3865625 18.7734375 33.390625 C20.19349745 38.29334859 20.19349745 38.29334859 23.875 41.5 C28.09732596 42.55558149 30.8661867 42.13758793 34.71484375 40.05859375 C38.48579986 37.55598816 40.96310428 35.51863408 42.1875 31.0625 C42.84270405 27.44865296 42.84270405 27.44865296 42.02734375 25.0703125 C41.89457031 24.44898438 41.76179687 23.82765625 41.625 23.1875 C42.285 22.5275 42.945 21.8675 43.625 21.1875 C45.625 21.3125 45.625 21.3125 47.625 22.1875 C48.29166667 23.52083333 48.95833333 24.85416667 49.625 26.1875 C50.21539062 26.29191406 50.80578125 26.39632812 51.4140625 26.50390625 C58.3678232 28.6539206 63.64415909 39.44070169 67.3359375 45.41015625 C71.10866196 53.53866259 72.09167975 61.03504706 71.9375 69.9375 C71.92912109 70.98357422 71.92074219 72.02964844 71.91210938 73.10742188 C71.7910938 80.93470943 71.14178644 88.4952259 69.625 96.1875 C68.965 96.1875 68.305 96.1875 67.625 96.1875 C66.40165483 93.74080965 66.55448815 92.25963472 66.6328125 89.53125 C66.65794922 88.11972656 66.65794922 88.11972656 66.68359375 86.6796875 C66.72717564 84.71593875 66.77898707 82.75235184 66.83984375 80.7890625 C66.95666254 72.95158357 66.0463949 65.81959235 61.625 59.1875 C59.18363354 58.67158412 59.18363354 58.67158412 56.625 59.1875 C50.13114396 63.92200738 45.51237557 72.89446322 42.625 80.1875 C42.20942873 85.35349806 42.20942873 85.35349806 44.3125 89.9375 C46.53527452 92.28945842 46.53527452 92.28945842 49.375 93.75 C50.1175 94.224375 50.86 94.69875 51.625 95.1875 C51.625 96.5075 51.625 97.8275 51.625 99.1875 C50.965 99.1875 50.305 99.1875 49.625 99.1875 C49.191875 100.0846875 49.191875 100.0846875 48.75 101 C47.625 103.1875 47.625 103.1875 45.625 106.1875 C44.965 106.1875 44.305 106.1875 43.625 106.1875 C43.625 106.8475 43.625 107.5075 43.625 108.1875 C42.965 108.1875 42.305 108.1875 41.625 108.1875 C41.356875 108.77015625 41.08875 109.3528125 40.8125 109.953125 C39.61019009 112.21536601 38.28674087 113.99326318 36.625 115.9375 C36.109375 116.55109375 35.59375 117.1646875 35.0625 117.796875 C33.625 119.1875 33.625 119.1875 31.625 119.1875 C31.625 119.8475 31.625 120.5075 31.625 121.1875 C30.965 121.1875 30.305 121.1875 29.625 121.1875 C29.625 122.1775 29.625 123.1675 29.625 124.1875 C24.875 122.3125 24.875 122.3125 22.625 121.1875 C18.40972341 120.78218494 16.07001063 120.96499468 12.25 122.875 C9.44088038 124.94983164 9.44088038 124.94983164 8.75 127.9375 C8.70875 128.68 8.6675 129.4225 8.625 130.1875 C9.264375 130.47625 9.90375 130.765 10.5625 131.0625 C12.625 132.1875 12.625 132.1875 13.625 134.1875 C16.30899539 135.14919216 18.95644506 136.01020888 21.6875 136.8125 C22.44611328 137.04195312 23.20472656 137.27140625 23.98632812 137.5078125 C25.86381812 138.07460193 27.74415633 138.63194077 29.625 139.1875 C27.97849235 144.90278135 26.37643862 146.82189764 21.625 150.1875 C20.965 150.1875 20.305 150.1875 19.625 150.1875 C19.295 151.1775 18.965 152.1675 18.625 153.1875 C8.87977013 159.30002141 -3.20147324 160.57916419 -14.28125 158.4296875 C-26.71640336 155.57904553 -36.19408887 152.3240589 -45.375 143.1875 C-42.28021121 142.15590374 -40.84868607 142.21267138 -37.6875 142.625 C-36.87925781 142.72683594 -36.07101563 142.82867187 -35.23828125 142.93359375 C-34.62339844 143.01738281 -34.00851563 143.10117187 -33.375 143.1875 C-33.24222656 142.55457031 -33.10945313 141.92164063 -32.97265625 141.26953125 C-32.375 139.1875 -32.375 139.1875 -30.8125 137.875 C-29.04879309 136.12386727 -29.04879309 136.12386727 -29 132.8125 C-29.39415796 129.00230634 -30.33225915 127.33672548 -32.375 124.1875 C-32.375 122.8675 -32.375 121.5475 -32.375 120.1875 C-33.41140625 120.21070313 -34.4478125 120.23390625 -35.515625 120.2578125 C-36.88540944 120.27657667 -38.2552017 120.29477618 -39.625 120.3125 C-40.30691406 120.32925781 -40.98882812 120.34601563 -41.69140625 120.36328125 C-45.4358235 120.39963482 -48.19852727 120.26694349 -51.375 118.1875 C-51.375 117.5275 -51.375 116.8675 -51.375 116.1875 C-51.99375 116.105 -52.6125 116.0225 -53.25 115.9375 C-55.375 115.1875 -55.375 115.1875 -56.50390625 113.51953125 C-57.59863723 110.58879406 -57.53415631 108.24506572 -57.4375 105.125 C-57.34045967 101.71171173 -57.2898191 99.44304271 -58.375 96.1875 C-58.36944744 94.62445441 -58.32353178 93.0613249 -58.25 91.5 C-58.20177081 84.88295476 -59.70849605 80.39449172 -63.6875 75.125 C-66.23766048 72.91127827 -66.23766048 72.91127827 -69.4375 73.0625 C-73.61414651 74.66206675 -75.41271492 77.26292983 -77.375 81.1875 C-77.78254042 86.48552551 -77.02076254 89.6082956 -74.375 94.1875 C-73.70833333 95.52083333 -73.04166667 96.85416667 -72.375 98.1875 C-73.365 98.1875 -74.355 98.1875 -75.375 98.1875 C-76.695 95.5475 -78.015 92.9075 -79.375 90.1875 C-79.705 91.1775 -80.035 92.1675 -80.375 93.1875 C-82.4375 93.875 -82.4375 93.875 -84.375 94.1875 C-84.54890259 93.33986084 -84.54890259 93.33986084 -84.72631836 92.47509766 C-85.25215296 89.92029309 -85.78227295 87.3663964 -86.3125 84.8125 C-86.49490234 83.92304688 -86.67730469 83.03359375 -86.86523438 82.1171875 C-87.04248047 81.26640625 -87.21972656 80.415625 -87.40234375 79.5390625 C-87.56468506 78.75354004 -87.72702637 77.96801758 -87.89428711 77.15869141 C-88.31206722 75.12789254 -88.31206722 75.12789254 -89.375 73.1875 C-90.61853827 57.9796385 -87.97187658 41.42294574 -77.87890625 29.40625 C-76.5 28 -76.5 28 -74.375 26.1875 C-74.1275 26.950625 -73.88 27.71375 -73.625 28.5 C-72.19964524 31.56451274 -71.25777474 32.48337252 -68.375 34.1875 C-65.50180256 34.66128796 -65.50180256 34.66128796 -62.4375 34.5625 C-60.90802734 34.57410156 -60.90802734 34.57410156 -59.34765625 34.5859375 C-55.98849726 34.13569543 -54.09256451 33.18070474 -51.375 31.1875 C-49.7716441 27.9807882 -49.87895557 24.66625318 -50.375 21.1875 C-51.48656304 18.87700216 -52.75779702 17.20900372 -54.375 15.1875 C-49.59770361 11.33042054 -44.81354462 7.48194476 -39.9375 3.75 C-39.01130859 3.04037109 -39.01130859 3.04037109 -38.06640625 2.31640625 C-34.81862167 0.14871631 -31.61874579 -0.04762674 -27.82421875 -0.34765625 C-26.73302734 -0.43466797 -25.64183594 -0.52167969 -24.51757812 -0.61132812 C-23.37740234 -0.69833984 -22.23722656 -0.78535156 -21.0625 -0.875 C-19.36963867 -1.01131836 -19.36963867 -1.01131836 -17.64257812 -1.15039062 C-3.00850639 -2.2959654 -3.00850639 -2.2959654 0 0 Z " fill="#D1824D" transform="translate(268.375,161.8125)"/>
<path d="M0 0 C6.93358588 6.7561516 6.93358588 6.7561516 7.0546875 10.84765625 C6.32514316 19.84008324 2.31215636 26.46387206 -4.24609375 32.5546875 C-7.86589978 35.53760116 -10.45387727 37.07730614 -15.203125 36.83984375 C-19.72977514 35.83857854 -22.85884189 33.98925906 -26.75 31.5625 C-33.08333305 27.81122937 -38.54037523 25.44314603 -46 25 C-47.27875 24.896875 -48.5575 24.79375 -49.875 24.6875 C-62.89681821 25.14020125 -75.26898089 30.10321725 -84.2109375 39.65234375 C-93.1614583 51.39745947 -94.09898476 63.78380333 -93 78 C-91.06546275 87.96403223 -85.33249033 96.86535251 -77.1875 102.875 C-65.6643329 110.32290069 -53.11992332 113.00337849 -39.546875 110.31640625 C-33.18518391 108.49985702 -27.73581702 106.01374207 -22.21875 102.3671875 C-18.86326258 100.2995456 -16.09220406 99 -12.125 99 C-3.64642175 101.71314504 1.06763242 109.41991343 5 117 C6.8106332 121.51584801 7.23698467 124.77198854 6.3125 129.5625 C1.18152605 139.28434537 -13.38257889 145.23074071 -23.3046875 148.4453125 C-45.70465031 155.26642554 -67.88943599 153.69003853 -88.89453125 143.109375 C-96.2007296 139.19957682 -102.81518717 134.5022783 -109 129 C-109.76957031 128.32453125 -110.53914063 127.6490625 -111.33203125 126.953125 C-126.96707358 112.35686743 -134.16328245 91.25090153 -135.125 70.2734375 C-135.58637351 48.41586763 -129.1019338 27.14784475 -114 11 C-83.39205649 -18.22880652 -35.10236698 -26.66647556 0 0 Z " fill="#3E1C14" transform="translate(159,174)"/>
<path d="M0 0 C-0.3125 1.9375 -0.3125 1.9375 -1 4 C-1.99 4.33 -2.98 4.66 -4 5 C-6.65404057 10.50467674 -8.21439684 15.87992088 -7 22 C-5.32783723 24.82322797 -5.32783723 24.82322797 -2 26 C1.78090394 26.58952625 5.22564362 26.66505978 9 26 C11.83214378 23.87589217 13.35629597 21.9070375 15.375 19.0625 C17.40981905 16.47984505 19.77804193 14.54381198 22.30859375 12.45703125 C24.14267903 10.9488483 24.14267903 10.9488483 26 8.6875 C29.02016079 6.13923934 31.05364619 6.06264054 35 6 C38.73612557 6.79556313 42.3632079 7.83596347 46 9 C45.94199219 9.76441406 45.88398438 10.52882812 45.82421875 11.31640625 C45.36233942 22.2827411 47.794718 32.76775117 54 42 C57.42409056 44.56806792 60.84442619 44.29161921 65 44 C66.68698082 43.38655243 68.35965807 42.72904086 70 42 C70.99 42 71.98 42 73 42 C74.82671967 55.0348108 76.57040108 67.81739716 76 81 C75.18595703 81.34611328 75.18595703 81.34611328 74.35546875 81.69921875 C71.04172581 83.20980787 68.47753171 84.47769969 66 87.1875 C64.59086698 91.15068663 64.75516685 94.83783641 65 99 C68.16753501 100.05818094 69.74745101 100.00603317 72.75 98.5625 C73.8225 98.046875 74.895 97.53125 76 97 C75.64961459 98.67201461 75.26803794 100.33749468 74.875 102 C74.56175781 103.3921875 74.56175781 103.3921875 74.2421875 104.8125 C72.52384916 109.22182103 70.56194542 112.82083353 67 116 C63.66778322 117.33090451 60.43352285 117.69439178 56.875 118 C55.53501953 118.16048828 55.53501953 118.16048828 54.16796875 118.32421875 C50.40743195 118.75704586 46.79134068 119 43 119 C43 119.66 43 120.32 43 121 C40.03 121.99 37.06 122.98 34 124 C34 124.66 34 125.32 34 126 C32.33333333 127 30.66666667 128 29 129 C28.154375 129.845625 27.30875 130.69125 26.4375 131.5625 C24.29152806 133.70847194 22.76710359 134.8726615 20 136 C20 136.66 20 137.32 20 138 C15.07197088 140.46401456 12.52363672 141.54605608 7 140 C4.4375 138.07421875 4.4375 138.07421875 2 135.6875 C-1.53851891 132.3346605 -4.88721998 129.58244327 -9 127 C-9.845625 126.319375 -10.69125 125.63875 -11.5625 124.9375 C-15.73815552 121.6183892 -18.38198302 119.93640341 -23.75 119.6875 C-29.67185988 119.29626601 -33.43673504 116.60431798 -38 113 C-37.72285156 111.91460937 -37.44570313 110.82921875 -37.16015625 109.7109375 C-36.7941437 108.26565719 -36.4282654 106.82034288 -36.0625 105.375 C-35.88009766 104.66214844 -35.69769531 103.94929688 -35.50976562 103.21484375 C-35.33251953 102.51230469 -35.15527344 101.80976563 -34.97265625 101.0859375 C-34.81031494 100.4470459 -34.64797363 99.8081543 -34.48071289 99.14990234 C-31.02424166 83.69145354 -31.29304295 65.15752241 -36 50 C-35.45730469 49.69707031 -34.91460937 49.39414063 -34.35546875 49.08203125 C-28.41978431 45.70313264 -28.41978431 45.70313264 -25 40 C-24.70842417 34.16848331 -26.00880861 31.53898515 -29.8125 27.125 C-33.29839324 23.37096113 -35.94776695 21.29317615 -41.0625 20.5625 C-42.031875 20.706875 -43.00125 20.85125 -44 21 C-45.78969026 23.42672567 -45.78969026 23.42672567 -47 26 C-47.66 26 -48.32 26 -49 26 C-47.89419368 18.17318902 -42.71833232 9.4946213 -36.84765625 4.171875 C-25.8911718 -2.77726947 -11.96740121 -4.37831752 0 0 Z " fill="#D48553" transform="translate(381,158)"/>
<path d="M0 0 C0.33 0.66 0.66 1.32 1 2 C-2.11808981 0.55434018 -4.74062634 -1.20806349 -7.5 -3.25 C-27.67586323 -17.39663297 -53.74550318 -21.57993353 -77.83447266 -17.54663086 C-96.34825945 -14.03736948 -114.12352479 -4.91404243 -127 9 C-128.25110343 11.1382704 -128.25110343 11.1382704 -129 13 C-128.04663979 14.31611677 -127.08714226 15.62778961 -126.125 16.9375 C-125.59132813 17.66839844 -125.05765625 18.39929688 -124.5078125 19.15234375 C-123.11987896 21.11098235 -123.11987896 21.11098235 -121 22 C-120.814375 21.071875 -120.814375 21.071875 -120.625 20.125 C-120 18 -120 18 -118 16 C-114.33382373 15.50006687 -112.37294752 15.80955871 -109.0625 17.5 C-98.98666745 25.72516943 -98.98666745 25.72516943 -97.875 32.1875 C-98.01010107 36.30808273 -98.3903398 37.86840776 -101 41 C-103.69366015 43.42429413 -105.55448619 44.8514954 -109 46 C-108.7834375 46.97839844 -108.7834375 46.97839844 -108.5625 47.9765625 C-107.55372706 52.72620177 -106.74284694 57.11409188 -107 62 C-109.68312593 59.31687407 -109.79225655 57.07175829 -110.625 53.375 C-115.27046718 34.70226639 -126.9589313 16.90921775 -143 6 C-147.97664482 4.27731525 -152.79342764 3.54806025 -158 3 C-158 3.66 -158 4.32 -158 5 C-156.3386634 6.45145244 -154.61899391 7.83648605 -152.875 9.1875 C-148.32029243 12.81951197 -144.59612198 16.43195316 -141 21 C-141.99 21.66 -142.98 22.32 -144 23 C-143.773125 23.66 -143.54625 24.32 -143.3125 25 C-142.88150518 29.1375503 -144.07395746 32.3466336 -146 36 C-148.79318734 39.18999112 -152.0716307 41.41692581 -156 43 C-160.17972821 43.08359456 -161.57507147 42.36698373 -164.75 39.625 C-167.77067248 36.1008821 -169.22643069 33.89604706 -169.625 29.3125 C-169.73714844 28.10013672 -169.73714844 28.10013672 -169.8515625 26.86328125 C-169.90054688 26.24839844 -169.94953125 25.63351563 -170 25 C-170.66 25 -171.32 25 -172 25 C-172 24.34 -172 23.68 -172 23 C-172.57234375 22.72414062 -173.1446875 22.44828125 -173.734375 22.1640625 C-175.98964267 21.00532152 -178.10856378 19.73124294 -180.25 18.375 C-181.30960938 17.70597656 -181.30960938 17.70597656 -182.390625 17.0234375 C-182.92171875 16.68570313 -183.4528125 16.34796875 -184 16 C-186.13532087 17.85594875 -186.13532087 17.85594875 -186.875 20.375 C-188.26804597 23.6254406 -189.01288897 25.0328781 -192 27 C-196.61740131 27.85751739 -200.9384608 27.9857971 -205.23828125 25.9296875 C-208.48985065 23.46576534 -210.38695654 21.08742084 -211.25 17.0625 C-211.39439598 13.08021085 -210.15829262 10.63532148 -207.6484375 7.60546875 C-203.62764052 3.68947927 -199.29204378 0.98960098 -193.75 -0.125 C-190 0 -190 0 -187.5 2.4375 C-187.005 3.283125 -186.51 4.12875 -186 5 C-186 3.68 -186 2.36 -186 1 C-192.28198429 -2.01420921 -198.47204776 -0.90436589 -205.25 -0.4375 C-206.53519531 -0.37498047 -207.82039063 -0.31246094 -209.14453125 -0.24804688 C-219.13675541 0.41297718 -225.98633367 2.7974982 -233.375 9.625 C-234.00148437 10.19476563 -234.62796875 10.76453125 -235.2734375 11.3515625 C-236.87296306 12.87871134 -238.44585385 14.42678458 -240 16 C-239.34 16.66 -238.68 17.32 -238 18 C-235.76190783 21.35713825 -235.34905474 23.12849829 -235.53515625 27.06640625 C-236.32812762 30.36490061 -238.41484988 31.96881062 -241 34 C-245.20102406 36.10051203 -250.4375238 35.54201741 -255 35 C-258.707777 33.17430752 -260.7214923 30.41776155 -263 27 C-263.495 26.505 -263.495 26.505 -264 26 C-264.61875 26.825 -265.2375 27.65 -265.875 28.5 C-266.57625 29.325 -267.2775 30.15 -268 31 C-268.66 31 -269.32 31 -270 31 C-270.061875 31.78375 -270.12375 32.5675 -270.1875 33.375 C-271.09783494 37.43649433 -272.68721755 40.54347894 -274.59765625 44.21484375 C-279.64863124 54.24644588 -283.38483009 63.82098202 -283.25 75.125 C-283.24178223 75.96393799 -283.23356445 76.80287598 -283.22509766 77.66723633 C-282.77993639 102.64174055 -272.57094293 123.42905707 -255 141 C-248.10292445 147.06905011 -240.33317524 151.22754905 -232 155 C-231.19046875 155.38027344 -230.3809375 155.76054687 -229.546875 156.15234375 C-208.87225073 165.223164 -183.28909123 164.26174761 -162.25 156.8125 C-151.36028719 152.27172088 -141.9663728 145.57698891 -133 138 C-131.79170768 136.99995044 -130.58338104 135.99994235 -129.375 135 C-128.199375 134.01 -128.199375 134.01 -127 133 C-127.26425781 133.72316406 -127.52851563 134.44632813 -127.80078125 135.19140625 C-128.32891618 138.15571407 -128.32891618 138.15571407 -126.04296875 140.46484375 C-120.02387465 145.67700047 -114.05889631 150.2566459 -107 154 C-106.08734375 154.51304687 -105.1746875 155.02609375 -104.234375 155.5546875 C-83.21822375 166.84946398 -57.28004977 168.44019906 -34.57641602 161.68603516 C-9.15269944 153.41987328 10.71330128 135.19157674 22.7890625 111.48828125 C26.40671783 103.53122162 28.56361168 95.60799618 30 87 C30.17789062 85.95585937 30.35578125 84.91171875 30.5390625 83.8359375 C31.16991163 78.58598962 31.36251358 73.34410862 31.5625 68.0625 C31.60568359 66.99708984 31.64886719 65.93167969 31.69335938 64.83398438 C31.79874489 62.22276557 31.90087088 59.61146254 32 57 C32.33 57 32.66 57 33 57 C37.39654302 83.09561016 31.355457 108.79516205 16.3125 130.5 C0.85597921 151.00176249 -21.53585003 164.30444723 -47 168 C-77.10843431 170.1904475 -102.45762115 163.71152005 -125.58984375 143.91796875 C-127.68593566 142.24992802 -129.55969177 141.07011196 -132 140 C-132.62003906 140.61746094 -133.24007812 141.23492187 -133.87890625 141.87109375 C-150.80042213 158.0536788 -171.68813915 166.8909868 -195.1875 167.3125 C-221.37056115 166.59515586 -242.91588476 156.92300557 -261.33984375 138.68359375 C-278.38599413 120.39415409 -286.88651023 95.99861132 -286.25 71.18359375 C-285.25164348 49.97350939 -277.18064298 29.85958978 -263 14 C-262.26136719 13.16726562 -261.52273438 12.33453125 -260.76171875 11.4765625 C-245.32676885 -4.94359697 -222.85706138 -14.93184402 -200.4140625 -16.203125 C-176.08158193 -16.50414538 -153.13962441 -9.87406922 -135 7 C-131.33275807 5.45722926 -129.01063491 3.20859556 -126.1875 0.4375 C-112.21355423 -12.42298395 -94.67444082 -19.99796223 -76 -23 C-75.07445312 -23.1546875 -74.14890625 -23.309375 -73.1953125 -23.46875 C-47.61412473 -26.65733998 -18.68297868 -18.03426414 0 0 Z " fill="#B56832" transform="translate(455,162)"/>
<path d="M0 0 C5.4203226 0.86393788 7.84189353 4.81874888 11 9 C18.81338258 20.90695432 21.58045211 30.51328881 19.04296875 44.734375 C18.19962921 50.0274058 17.74082943 55.22862469 17.5078125 60.57421875 C17.47450333 61.31636124 17.44119415 62.05850372 17.40687561 62.82313538 C17.27451253 65.88376181 17.15019627 68.9443664 17.04638672 72.00610352 C16.46131405 88.56856496 12.25391529 100.41278622 -0.0625 112.125 C-11.39632025 121.61878725 -23.16672483 127.71156145 -38.0625 128.375 C-48.09122086 128.86620265 -57.47065831 131.78886835 -66.94140625 134.99609375 C-74.64355011 137.57995903 -82.93970999 138.84117175 -90.5 135.1875 C-91.68514076 134.48876076 -92.8548511 133.76251501 -94 133 C-94.825 132.46375 -95.65 131.9275 -96.5 131.375 C-96.995 130.92125 -97.49 130.4675 -98 130 C-98 129.34 -98 128.68 -98 128 C-98.54914063 127.74605469 -99.09828125 127.49210937 -99.6640625 127.23046875 C-102.39930015 125.78966631 -104.83887302 124.08084059 -107.375 122.3125 C-113.94882386 117.87313994 -120.84037812 114.38917012 -128 111 C-123.75381976 103.28338399 -119.38023481 95.6409555 -115 88 C-111.85808576 89.53604696 -108.91403262 91.05731159 -106 93 C-103.65723895 93.34610627 -103.65723895 93.34610627 -101.125 93.4375 C-96.89554773 93.80978945 -94.43048637 94.36116433 -91 97 C-90.34644531 97.49757813 -89.69289063 97.99515625 -89.01953125 98.5078125 C-87.47927291 99.69017949 -85.94825298 100.88466025 -84.42578125 102.08984375 C-82.77127389 103.39266839 -81.10114672 104.67583976 -79.41796875 105.94140625 C-78.59941406 106.55886719 -77.78085937 107.17632812 -76.9375 107.8125 C-75.80634766 108.65748047 -75.80634766 108.65748047 -74.65234375 109.51953125 C-74.10707031 110.00808594 -73.56179688 110.49664062 -73 111 C-73 111.66 -73 112.32 -73 113 C-66.92193109 114.79172099 -62.96758117 115.28545662 -57 113 C-57 112.34 -57 111.68 -57 111 C-52.52941176 107 -52.52941176 107 -50 107 C-49.71125 106.38125 -49.4225 105.7625 -49.125 105.125 C-48 103 -48 103 -46 101 C-45.01 101 -44.02 101 -43 101 C-43 100.34 -43 99.68 -43 99 C-40.03 98.01 -37.06 97.02 -34 96 C-34 95.34 -34 94.68 -34 94 C-27.80216936 92.06317792 -21.91803908 91.66326152 -15.4609375 91.60571289 C-13.17545779 91.57354895 -13.17545779 91.57354895 -10 91 C-8.59716446 89.24676581 -8.59716446 89.24676581 -8 87 C-7.49855469 86.36578125 -6.99710937 85.7315625 -6.48046875 85.078125 C-4.77687623 82.68680251 -4.09221821 80.57183735 -3.3125 77.75 C-3.06113281 76.85796875 -2.80976563 75.9659375 -2.55078125 75.046875 C-2.36902344 74.37140625 -2.18726563 73.6959375 -2 73 C-2.9075 73.515625 -3.815 74.03125 -4.75 74.5625 C-8 76 -8 76 -10.3125 75.75 C-12 75 -12 75 -13 74 C-13.72995321 69.14059722 -13.57574759 65.17977026 -10.75 61.0625 C-8.76828776 58.6441393 -7.06550327 56.91965098 -4 56 C-3.01 56 -2.02 56 -1 56 C-1.05534912 55.34628418 -1.11069824 54.69256836 -1.16772461 54.01904297 C-1.61156874 48.76588677 -2.04879006 43.51230336 -2.4765625 38.2578125 C-2.77236154 34.64429679 -3.08786903 31.03601607 -3.4609375 27.4296875 C-3.57695312 26.21539062 -3.69296875 25.00109375 -3.8125 23.75 C-3.97685547 22.19539063 -3.97685547 22.19539063 -4.14453125 20.609375 C-3.97037188 17.46509236 -3.20443367 16.20969485 -1 14 C-0.34 14 0.32 14 1 14 C2.12029814 8.51053913 1.79217969 5.16569441 0 0 Z " fill="#C7773D" transform="translate(458,183)"/>
<path d="M0 0 C0.33 0.66 0.66 1.32 1 2 C-2.11808981 0.55434018 -4.74062634 -1.20806349 -7.5 -3.25 C-27.67586323 -17.39663297 -53.74550318 -21.57993353 -77.83447266 -17.54663086 C-96.34825945 -14.03736948 -114.12352479 -4.91404243 -127 9 C-128.25110343 11.1382704 -128.25110343 11.1382704 -129 13 C-128.04663979 14.31611677 -127.08714226 15.62778961 -126.125 16.9375 C-125.59132813 17.66839844 -125.05765625 18.39929688 -124.5078125 19.15234375 C-123.11987896 21.11098235 -123.11987896 21.11098235 -121 22 C-120.814375 21.071875 -120.814375 21.071875 -120.625 20.125 C-120 18 -120 18 -118 16 C-114.33382373 15.50006687 -112.37294752 15.80955871 -109.0625 17.5 C-98.98666745 25.72516943 -98.98666745 25.72516943 -97.875 32.1875 C-98.01010107 36.30808273 -98.3903398 37.86840776 -101 41 C-103.69366015 43.42429413 -105.55448619 44.8514954 -109 46 C-108.7834375 46.97839844 -108.7834375 46.97839844 -108.5625 47.9765625 C-107.55372706 52.72620177 -106.74284694 57.11409188 -107 62 C-109.68312593 59.31687407 -109.79225655 57.07175829 -110.625 53.375 C-114.00618501 39.78412432 -120.49116275 28.27938096 -130 18 C-130.68578125 17.22269531 -131.3715625 16.44539063 -132.078125 15.64453125 C-138.19229828 9.0661337 -145.29491401 4.48319676 -153 0 C-153.99128906 -0.58007812 -154.98257813 -1.16015625 -156.00390625 -1.7578125 C-174.42278086 -11.73157045 -198.20856195 -13.42163234 -218.4375 -8.375 C-220.64395448 -7.63780871 -222.83352761 -6.84751976 -225 -6 C-226.15757812 -5.5875 -227.31515625 -5.175 -228.5078125 -4.75 C-252.39758425 4.49087874 -267.70682997 23.16787739 -278 46 C-279.23950288 48.9712906 -280.22647024 51.87680091 -281 55 C-281.20238281 55.76441406 -281.40476562 56.52882813 -281.61328125 57.31640625 C-286.60573918 79.56171199 -282.08304941 103.64597082 -270.16796875 122.92578125 C-259.89562619 137.49214809 -248.3302233 147.60726378 -232 155 C-231.19046875 155.38027344 -230.3809375 155.76054687 -229.546875 156.15234375 C-208.87225073 165.223164 -183.28909123 164.26174761 -162.25 156.8125 C-151.36028719 152.27172088 -141.9663728 145.57698891 -133 138 C-131.79170768 136.99995044 -130.58338104 135.99994235 -129.375 135 C-128.199375 134.01 -128.199375 134.01 -127 133 C-127.26425781 133.72316406 -127.52851563 134.44632813 -127.80078125 135.19140625 C-128.32891618 138.15571407 -128.32891618 138.15571407 -126.04296875 140.46484375 C-120.02387465 145.67700047 -114.05889631 150.2566459 -107 154 C-106.08734375 154.51304687 -105.1746875 155.02609375 -104.234375 155.5546875 C-83.21822375 166.84946398 -57.28004977 168.44019906 -34.57641602 161.68603516 C-9.15269944 153.41987328 10.71330128 135.19157674 22.7890625 111.48828125 C26.40671783 103.53122162 28.56361168 95.60799618 30 87 C30.17789062 85.95585937 30.35578125 84.91171875 30.5390625 83.8359375 C31.16991163 78.58598962 31.36251358 73.34410862 31.5625 68.0625 C31.60568359 66.99708984 31.64886719 65.93167969 31.69335938 64.83398438 C31.79874489 62.22276557 31.90087088 59.61146254 32 57 C32.33 57 32.66 57 33 57 C37.39654302 83.09561016 31.355457 108.79516205 16.3125 130.5 C0.85597921 151.00176249 -21.53585003 164.30444723 -47 168 C-77.10843431 170.1904475 -102.45762115 163.71152005 -125.58984375 143.91796875 C-127.68593566 142.24992802 -129.55969177 141.07011196 -132 140 C-132.62003906 140.61746094 -133.24007812 141.23492187 -133.87890625 141.87109375 C-150.80042213 158.0536788 -171.68813915 166.8909868 -195.1875 167.3125 C-221.37056115 166.59515586 -242.91588476 156.92300557 -261.33984375 138.68359375 C-278.38599413 120.39415409 -286.88651023 95.99861132 -286.25 71.18359375 C-285.25164348 49.97350939 -277.18064298 29.85958978 -263 14 C-262.26136719 13.16726562 -261.52273438 12.33453125 -260.76171875 11.4765625 C-245.32676885 -4.94359697 -222.85706138 -14.93184402 -200.4140625 -16.203125 C-176.08158193 -16.50414538 -153.13962441 -9.87406922 -135 7 C-131.33275807 5.45722926 -129.01063491 3.20859556 -126.1875 0.4375 C-112.21355423 -12.42298395 -94.67444082 -19.99796223 -76 -23 C-75.07445312 -23.1546875 -74.14890625 -23.309375 -73.1953125 -23.46875 C-47.61412473 -26.65733998 -18.68297868 -18.03426414 0 0 Z " fill="#451F10" transform="translate(455,162)"/>
<path d="M0 0 C1.68029297 -0.0309375 1.68029297 -0.0309375 3.39453125 -0.0625 C18.84556054 -0.13461682 29.37886236 5.70768315 41.125 15.25 C42.135625 16.013125 43.14625 16.77625 44.1875 17.5625 C44.826875 18.119375 45.46625 18.67625 46.125 19.25 C46.125 19.91 46.125 20.57 46.125 21.25 C47.61 21.745 47.61 21.745 49.125 22.25 C50.94921875 24.09765625 50.94921875 24.09765625 52.8125 26.3125 C53.43511719 27.04597656 54.05773437 27.77945313 54.69921875 28.53515625 C55.16972656 29.10105469 55.64023437 29.66695312 56.125 30.25 C55.465 30.91 54.805 31.57 54.125 32.25 C54.68452717 34.19188843 55.24451544 36.13364745 55.80859375 38.07421875 C56.34417549 41.75716973 54.86192409 44.04337091 53.125 47.25 C52.135 47.25 51.145 47.25 50.125 47.25 C49.63 48.24 49.63 48.24 49.125 49.25 C47.1335944 49.63133299 45.13220923 49.96325582 43.125 50.25 C42.135 50.745 42.135 50.745 41.125 51.25 C35.36501037 51.80384516 32.5777256 50.91867142 28.125 47.25 C26.76824188 44.67870159 25.75511366 42.45443473 24.8125 39.75 C24.56177734 39.08613281 24.31105469 38.42226562 24.05273438 37.73828125 C21.98560477 32.18529502 20.99812352 27.92263573 21.0625 22 C21.07152344 20.92234375 21.08054687 19.8446875 21.08984375 18.734375 C21.10144531 17.91453125 21.11304688 17.0946875 21.125 16.25 C12.94964174 13.38772493 12.94964174 13.38772493 4.6875 14.1875 C0.87397005 17.25692655 -2.48174361 20.72896408 -5.875 24.25 C-6.40738281 24.77335937 -6.93976563 25.29671875 -7.48828125 25.8359375 C-9.06063058 27.38769293 -9.06063058 27.38769293 -10.9375 29.875 C-13.11747411 32.54722633 -13.88948336 33.13727751 -17.265625 33.5234375 C-25.95211946 33.83197419 -25.95211946 33.83197419 -29.5625 31.3125 C-32.24346748 27.76202956 -32.63827212 26.01000445 -32.33984375 21.671875 C-31.55605223 17.5882553 -30.19136621 13.7206758 -27.875 10.25 C-26.885 9.92 -25.895 9.59 -24.875 9.25 C-24.545 8.26 -24.215 7.27 -23.875 6.25 C-24.638125 6.311875 -25.40125 6.37375 -26.1875 6.4375 C-29.36280806 6.21596688 -29.83235659 5.53224968 -31.875 3.25 C-30.20889071 2.93454181 -28.5420755 2.62281161 -26.875 2.3125 C-25.946875 2.13847656 -25.01875 1.96445313 -24.0625 1.78515625 C-15.98481768 0.42897674 -8.18757654 0.03742892 0 0 Z " fill="#C6773D" transform="translate(404.875,151.75)"/>
<path d="M0 0 C2.375 0.75 2.375 0.75 4.5625 3.25 C8.64864884 11.14049431 8.63541998 18.54145363 8.5 27.25 C8.49097656 28.35859375 8.48195313 29.4671875 8.47265625 30.609375 C8.44926167 33.32314592 8.41648175 36.03645545 8.375 38.75 C9.035 38.75 9.695 38.75 10.375 38.75 C9.803056 50.18887999 5.78673613 59.33268676 -2.19140625 67.5859375 C-5.17375361 70.23797672 -8.22643085 72.18962828 -11.71875 74.1015625 C-15.52355688 76.25966533 -19.12322261 78.68270269 -22.75 81.125 C-23.42627441 81.57875 -24.10254883 82.0325 -24.79931641 82.5 C-26.4092444 83.58130111 -28.01732347 84.66535424 -29.625 85.75 C-29.955 84.76 -30.285 83.77 -30.625 82.75 C-35.19035122 80.46732439 -39.92246489 78.96076053 -44.8046875 77.49609375 C-46.625 76.75 -46.625 76.75 -47.625 74.75 C-49.64169827 73.61649466 -49.64169827 73.61649466 -51.625 72.75 C-51.32679167 69.17150008 -50.88254642 67.98773516 -48.1875 65.5 C-44.04264024 62.66936406 -41.69995443 62.33402013 -36.625 62.75 C-34.08562031 63.87697277 -31.96478902 65.22197452 -29.625 66.75 C-29.625 65.76 -29.625 64.77 -29.625 63.75 C-28.965 63.75 -28.305 63.75 -27.625 63.75 C-27.625 63.09 -27.625 62.43 -27.625 61.75 C-25.25 59.125 -25.25 59.125 -22.625 56.75 C-21.965 56.75 -21.305 56.75 -20.625 56.75 C-20.315625 56.13125 -20.00625 55.5125 -19.6875 54.875 C-19 53.5 -18.3125 52.125 -17.625 50.75 C-16.965 50.75 -16.305 50.75 -15.625 50.75 C-15.625 50.09 -15.625 49.43 -15.625 48.75 C-14.965 48.75 -14.305 48.75 -13.625 48.75 C-13.33625 48.151875 -13.0475 47.55375 -12.75 46.9375 C-11.625 44.75 -11.625 44.75 -9.625 41.75 C-8.965 41.75 -8.305 41.75 -7.625 41.75 C-7.67268403 39.87119128 -7.67268403 39.87119128 -8.625 37.75 C-10.59821053 36.3773318 -12.60043152 35.04572383 -14.625 33.75 C-17.15361635 31.30567087 -17.58326711 30.14844972 -17.953125 26.6171875 C-17.54352506 21.78975963 -15.93750835 18.79298282 -13.5 14.6875 C-12.93152344 13.6655957 -12.93152344 13.6655957 -12.3515625 12.62304688 C-9.4415308 7.57414188 -5.85838809 1.67382517 0 0 Z " fill="#C7773D" transform="translate(327.625,219.25)"/>
<path d="M0 0 C4.87075594 2.08746683 7.67725896 6.22951793 10 10.875 C10.75253107 14.78816159 10.72730782 18.46730377 10.59765625 22.44140625 C10.62516984 25.14166859 11.08557692 27.48688399 11.625 30.125 C11.65193116 32.40645362 11.56358846 34.66237828 11.46484375 36.94140625 C11.65200084 39.49313334 12.21345923 40.99604247 13.625 43.125 C15.11 43.62 15.11 43.62 16.625 44.125 C16.625 44.785 16.625 45.445 16.625 46.125 C20.34790588 47.05572647 23.80808558 47.12831022 27.6328125 47.12109375 C30.56271672 47.12683866 32.83215047 47.15075016 35.625 48.125 C37.4375 51.5625 37.4375 51.5625 38.625 55.125 C38.955 55.785 39.285 56.445 39.625 57.125 C39.9375 60.5 39.9375 60.5 39.625 64.125 C37.6875 66.375 37.6875 66.375 35.625 68.125 C35.13 69.61 35.13 69.61 34.625 71.125 C33.85414063 71.11339844 33.08328125 71.10179687 32.2890625 71.08984375 C31.28617188 71.08082031 30.28328125 71.07179688 29.25 71.0625 C28.25226563 71.05089844 27.25453125 71.03929687 26.2265625 71.02734375 C23.64067547 70.94493398 23.64067547 70.94493398 21.625 72.125 C21.625 71.135 21.625 70.145 21.625 69.125 C21.08875 68.898125 20.5525 68.67125 20 68.4375 C17.54869502 67.08283146 15.62790253 65.42314802 13.51171875 63.60546875 C11.22762201 61.8131858 8.83404467 60.29340603 6.375 58.75 C-13.24179981 46.42936688 -13.24179981 46.42936688 -16.375 38.125 C-16.51497227 35.33675242 -16.5638913 32.65672884 -16.5 29.875 C-16.49097656 29.12992187 -16.48195312 28.38484375 -16.47265625 27.6171875 C-16.44918358 25.78631941 -16.41331525 23.95561762 -16.375 22.125 C-15.055 21.795 -13.735 21.465 -12.375 21.125 C-12.045 19.805 -11.715 18.485 -11.375 17.125 C-9.43231159 20.03903262 -7.91104696 22.98308576 -6.375 26.125 C-6.375 22.54688369 -7.23965142 21.85824619 -9.375 19.125 C-10.58143566 15.50569302 -10.69768559 12.93268995 -10.375 9.125 C-7.974975 4.66781072 -5.42502241 0.2855275 0 0 Z " fill="#C7773D" transform="translate(200.375,233.875)"/>
<path d="M0 0 C0.3403125 0.86625 0.3403125 0.86625 0.6875 1.75 C2.44810585 4.76818146 4.0095224 6.1548117 7 8 C9.99372438 8.60778633 12.95082107 8.86713817 16 9 C16 9.33 16 9.66 16 10 C13.36 10 10.72 10 8 10 C7.55260671 20.51374234 7.99912042 30.02676352 10.66503906 40.24755859 C12.08650408 45.74048777 12.08650408 45.74048777 11 49 C10.34 48.34 9.68 47.68 9 47 C6.04042934 46.93659815 6.04042934 46.93659815 3 48 C-0.15056229 51.32086295 -1.89773301 53.67052908 -2.25 58.25 C-1.97914403 62.31283956 -1.0177072 64.50781446 1 68 C1.66666667 69.33333333 2.33333333 70.66666667 3 72 C2.01 72 1.02 72 0 72 C-1.32 69.36 -2.64 66.72 -4 64 C-4.33 64.99 -4.66 65.98 -5 67 C-7.0625 67.6875 -7.0625 67.6875 -9 68 C-9.17390259 67.15236084 -9.17390259 67.15236084 -9.35131836 66.28759766 C-9.87715296 63.73279309 -10.40727295 61.1788964 -10.9375 58.625 C-11.21110352 57.29082031 -11.21110352 57.29082031 -11.49023438 55.9296875 C-11.66748047 55.07890625 -11.84472656 54.228125 -12.02734375 53.3515625 C-12.18968506 52.56604004 -12.35202637 51.78051758 -12.51928711 50.97119141 C-12.93706722 48.94039254 -12.93706722 48.94039254 -14 47 C-15.3545515 30.4345013 -11.64623813 15.26205644 -1.625 1.8125 C-1.08875 1.214375 -0.5525 0.61625 0 0 Z " fill="#C6773D" transform="translate(193,188)"/>
<path d="M0 0 C-0.3125 1.9375 -0.3125 1.9375 -1 4 C-1.99 4.33 -2.98 4.66 -4 5 C-6.61296011 10.62791409 -7.58638429 15.83855222 -8 22 C-10.99291634 22.83635769 -13.84203408 23.20378994 -16.9375 23.4375 C-21.78016798 23.89395177 -25.46349303 24.46349303 -29 28 C-29.48210937 27.57847656 -29.96421875 27.15695313 -30.4609375 26.72265625 C-31.40839844 25.90087891 -31.40839844 25.90087891 -32.375 25.0625 C-33.00148438 24.51722656 -33.62796875 23.97195312 -34.2734375 23.41015625 C-36.62839137 21.48676633 -37.87298536 21.01621463 -40.9375 20.625 C-42.4534375 20.810625 -42.4534375 20.810625 -44 21 C-45.78969026 23.42672567 -45.78969026 23.42672567 -47 26 C-47.66 26 -48.32 26 -49 26 C-47.89419368 18.17318902 -42.71833232 9.4946213 -36.84765625 4.171875 C-25.8911718 -2.77726947 -11.96740121 -4.37831752 0 0 Z " fill="#C6773D" transform="translate(381,158)"/>
<path d="M0 0 C8.11046251 3.963328 17.45968086 10.34588654 21 19 C21.42920358 22.93436618 21.44334769 25.20566873 19.5 28.6875 C15.24965247 32.61907147 11.12312792 34.70715477 5.375 35.5 C1.18740597 34.8796157 -0.7171099 33.67082584 -4 31 C-5.35675812 28.42870159 -6.36988634 26.20443473 -7.3125 23.5 C-7.68858398 22.50419922 -7.68858398 22.50419922 -8.07226562 21.48828125 C-10.13939523 15.93529502 -11.12687648 11.67263573 -11.0625 5.75 C-11.04896484 4.13351563 -11.04896484 4.13351563 -11.03515625 2.484375 C-11.02355469 1.66453125 -11.01195312 0.8446875 -11 0 C-7.39804592 -1.80097704 -3.74582948 -0.98369706 0 0 Z " fill="#401C12" transform="translate(437,168)"/>
<path d="M0 0 C2.375 0.75 2.375 0.75 4.5625 3.25 C9.6528576 13.07965605 9.47773165 23.19842947 6.421875 33.65625 C5.12903946 36.24192109 3.8552903 37.2910057 1.375 38.75 C-4.62840843 39.55045446 -7.98837885 38.57423452 -12.92578125 35.1015625 C-15.03610386 33.42300705 -16.46526856 32.21442932 -17.625 29.75 C-18.26443055 23.5038552 -16.58523031 19.88393759 -13.5 14.6875 C-13.12101562 14.00623047 -12.74203125 13.32496094 -12.3515625 12.62304688 C-9.4415308 7.57414188 -5.85838809 1.67382517 0 0 Z " fill="#411C11" transform="translate(327.625,219.25)"/>
<path d="M0 0 C3.97156771 2.21491276 7.18560639 4.68371278 9.25 8.8125 C9.37176503 10.62198495 9.42545792 12.43646271 9.4375 14.25 C9.45167969 15.21808594 9.46585937 16.18617188 9.48046875 17.18359375 C9.25 19.8125 9.25 19.8125 7.25 22.8125 C4.75638429 21.60868552 2.56856917 20.35821278 0.25 18.8125 C-2.20769153 18.39570703 -2.20769153 18.39570703 -4.75 18.8125 C-5.36101562 19.30363281 -5.97203125 19.79476562 -6.6015625 20.30078125 C-10.34395647 22.93406573 -14.3626277 22.54136991 -18.75 21.8125 C-21.9375 19.875 -21.9375 19.875 -23.75 16.8125 C-24.30612955 12.68014847 -23.67034986 9.29684474 -21.46875 5.74609375 C-15.45021586 -1.60818649 -8.99143819 -2.84728876 0 0 Z " fill="#3F1C12" transform="translate(376.75,236.1875)"/>
<path d="M0 0 C5.20070038 2.12755925 8.22202766 6.37537416 11.3125 10.9375 C12.75958077 15.27874232 12.39105017 18.95033902 10.8125 23.1875 C8.81928618 26.280418 7.12773455 28.06378337 4 30 C1.25 30.3125 1.25 30.3125 -1 30 C-2.58272601 28.41727399 -2.34735747 26.61965997 -2.5625 24.4375 C-2.64628906 23.61121094 -2.73007813 22.78492188 -2.81640625 21.93359375 C-2.87699219 21.29550781 -2.93757812 20.65742188 -3 20 C-4.5778125 19.6596875 -4.5778125 19.6596875 -6.1875 19.3125 C-10.22076257 18.13442736 -12.4313291 16.39971149 -15 13 C-16.125 9.5 -16.125 9.5 -16 6 C-11.19650605 0.02808861 -7.31385298 -0.68686619 0 0 Z " fill="#411D12" transform="translate(237,215)"/>
<path d="M0 0 C2.71831684 2.69346933 3.90308629 4.33638749 4.4609375 8.15625 C4.41839844 9.81140625 4.41839844 9.81140625 4.375 11.5 C4.35566406 13.15515625 4.35566406 13.15515625 4.3359375 14.84375 C3.90195857 18.92113343 2.71251928 21.85377333 0.5625 25.3125 C-3.70897484 28.12542245 -8.06487201 27.90488948 -13 27 C-16.76584211 25.19923082 -19.18130536 22.92978023 -20.8203125 19.06640625 C-21.64448624 15.22275961 -21.17203506 12.62439805 -19.0625 9.3125 C-14.58568539 3.83247764 -7.30242223 -1.06864716 0 0 Z " fill="#3F1C12" transform="translate(265,162)"/>
<path d="M0 0 C3.79484534 1.89742267 6.74365913 3.80362279 9.25 7.3125 C9.32888509 11.09898436 8.51537297 12.90986514 6.4375 16.0625 C3.81641898 18.75846905 1.79693956 20.12730301 -1.96875 20.578125 C-2.7215625 20.57296875 -3.474375 20.5678125 -4.25 20.5625 C-5.0028125 20.56765625 -5.755625 20.5728125 -6.53125 20.578125 C-8.9796721 20.28500404 -10.62304054 19.53066769 -12.75 18.3125 C-12.75 17.6525 -12.75 16.9925 -12.75 16.3125 C-13.41 16.3125 -14.07 16.3125 -14.75 16.3125 C-17.8016927 11.35349937 -18.71224749 7.01885137 -17.75 1.3125 C-13.89325963 -4.22108402 -5.36136392 -2.20182892 0 0 Z " fill="#411C11" transform="translate(365.75,279.6875)"/>
<path d="M0 0 C3.06583403 1.72732021 5.40227558 3.80455115 7 7 C7.70153846 14.13230769 7.70153846 14.13230769 4.625 17.9375 C-0.5152252 21.97624837 -5.63119684 21.7297587 -12 21 C-15.04762548 19.70027737 -15.87734205 18.71228516 -18 16 C-18.83819387 12.06048881 -18.22326295 10.41344992 -16.3125 6.875 C-11.54019621 0.94186556 -7.67799444 -1.60576685 0 0 Z " fill="#411C11" transform="translate(212,176)"/>
<path d="M0 0 C4.93042518 2.11303936 7.77171221 6.30206699 10 11.0625 C10.79097886 14.93829641 10.88461305 18.16590092 10.625 22.125 C8.625 25.125 8.625 25.125 5.625 26.125 C1.47213223 26.51677998 -0.86469587 26.38015206 -4.625 24.5 C-8.72922338 20.95544344 -10.14259618 17.98423054 -10.8125 12.625 C-10.18075283 7.57102266 -7.97850873 4.72850873 -4.4375 1.1875 C-2.375 0.125 -2.375 0.125 0 0 Z " fill="#411C11" transform="translate(200.375,233.875)"/>
<path d="M0 0 C3.70390021 2.02666238 5.65363011 3.48044516 8 7 C8.4775733 11.85532856 8.51341394 14.04398784 6.1875 18.375 C3.50528658 21.5936561 1.91933124 22.85856443 -2.25 23.5 C-6.57414319 22.92344758 -8.49845604 21.87689751 -11.60546875 18.91015625 C-14.09412249 15.50132801 -14.52533334 12.13607514 -14 8 C-10.65001754 1.4196773 -7.37638723 -0.75014107 0 0 Z " fill="#401C12" transform="translate(403,200)"/>
<path d="M0 0 C5.03109915 2.01243966 8.70783606 6.41567213 11.125 11.25 C11.80802257 18.3078999 11.80802257 18.3078999 9.3125 21.75 C4.55490035 23.98887042 0.28571648 24.0950296 -4.875 23.25 C-8.04836023 21.99034556 -8.69914547 21.13153708 -10.875 18.25 C-11.78959863 13.96378777 -11.38439216 10.45645511 -9.6875 6.4375 C-4.69159973 0.40796519 -4.69159973 0.40796519 0 0 Z " fill="#3D1B14" transform="translate(383.875,161.75)"/>
<path d="M0 0 C3.5386994 1.65139305 4.81070153 2.71605229 7 6 C7.46287185 10.99901603 7.10431905 14.00873265 4 18 C1.47155864 20.82018459 -0.77525796 21.29527173 -4.4375 21.5625 C-8.25096905 21.41776438 -8.92512041 21.0611262 -12.0625 18.5 C-14.15581673 15.40743452 -14.72762664 12.67088995 -14.5 8.96484375 C-13.5960421 5.4125717 -11.59890985 3.53703105 -9 1 C-5.93570224 -0.53214888 -3.3834358 -0.22938548 0 0 Z " fill="#421D11" transform="translate(284,217)"/>
<path d="M0 0 C2.22882139 1.62602652 2.90465624 2.50867899 3.43359375 5.234375 C3.4431462 11.38615536 2.64743458 14.997804 -1 20 C-4 22 -4 22 -6.875 21.9375 C-11.84585957 20.44624213 -14.19267059 17.21099411 -17 13 C-17.4375 9.625 -17.4375 9.625 -17 6 C-12.1335627 -0.08304662 -7.54286747 -2.3077767 0 0 Z " fill="#3F1B11" transform="translate(303,183)"/>
<path d="M0 0 C2.96912882 1.38980498 4.69657028 2.69657028 7 5 C7.54973442 8.50455693 7.689301 10.92798893 5.7265625 13.98046875 C1.83705357 18.58147321 1.83705357 18.58147321 -1 20 C-4.79703187 20.17157511 -8.49708155 20.02377702 -11.703125 17.83984375 C-14.17891882 15.17196247 -14.99978 13.00139335 -15.5625 9.4375 C-14.91429589 5.47625263 -13.81200626 3.81200626 -11 1 C-7.55643018 -0.72178491 -3.7728428 -0.37858976 0 0 Z " fill="#441D10" transform="translate(425,243)"/>
<path d="M0 0 C5.53846154 3.07692308 5.53846154 3.07692308 7 6 C7.47823278 9.08127196 7.57808529 11.92925337 7 15 C4.86704545 17.80237413 2.14146646 19.42926677 -1 21 C-5.63554388 21.41204834 -8.30416098 20.87454146 -12 18 C-14.32826375 14.78477863 -14.39711181 11.89169575 -14 8 C-10.9096311 1.35570687 -7.3509212 -0.88718014 0 0 Z " fill="#3E1C12" transform="translate(421,287)"/>
<path d="M0 0 C2.82275936 1.25455972 4.46288541 2.28384722 6.3125 4.75 C7.35649568 8.16671313 7.55281827 10.43739339 7 14 C5.05078179 16.68738369 2.94593725 18.47247698 0 20 C-4.31386595 20.148754 -6.30862967 19.46592348 -9.875 17.0625 C-12.80424312 14.21941109 -12.95903757 13.35695833 -13.4375 9.1875 C-13.38347254 5.4798656 -13.03761463 5.04403664 -10.4375 2 C-6.46412407 -0.31178236 -4.51990817 -0.65744119 0 0 Z " fill="#3E1B13" transform="translate(233,284)"/>
<path d="M0 0 C3.69587799 1.97616333 6.37882816 4.25408498 7.8046875 8.26171875 C8.4017489 11.94765905 8.44354793 14.19354922 6.625 17.5 C2.83058307 19.66823825 -0.63135382 20.46860911 -5 20 C-8.12940297 18.35089553 -10.39807782 16.20384436 -12 13 C-12.39447548 8.81855989 -12.45035186 6.69053952 -10.125 3.125 C-6.80863845 -0.19136155 -4.65337142 -0.61459623 0 0 Z " fill="#431E12" transform="translate(266,258)"/>
<path d="M0 0 C2.43177692 1.45523658 4.00032617 2.94770317 6 5 C4.49799309 9.16715332 2.03410097 10.45865282 -1.75 12.5625 C-2.77609375 13.14128906 -3.8021875 13.72007812 -4.859375 14.31640625 C-13.66404008 19.03631999 -13.66404008 19.03631999 -16.3125 18.75 C-18 18 -18 18 -19 17 C-19.72995321 12.14059722 -19.57574759 8.17977026 -16.75 4.0625 C-12.25750196 -1.80270578 -6.7576922 -1.70004835 0 0 Z " fill="#461E10" transform="translate(464,240)"/>
<path d="M0 0 C4.87070677 2.43535338 7.15569877 4.87694102 9 10 C9.25 13.3125 9.25 13.3125 9 16 C8.67 16.33 8.34 16.66 8 17 C2.59159299 16.78790561 -2.31393088 15.44112333 -7.4375 13.75 C-8.65308594 13.35296875 -9.86867188 12.9559375 -11.12109375 12.546875 C-14 11 -14 11 -14.91015625 8.328125 C-14.93980469 7.55984375 -14.96945312 6.7915625 -15 6 C-7.21400778 -0.60116732 -7.21400778 -0.60116732 0 0 Z " fill="#401C11" transform="translate(291,282)"/>
<path d="M0 0 C0 -0.66 0 -1.32 0 -2 C15.18911356 -0.94188198 30.84711426 7.91989637 42 18 C42.99 19.485 42.99 19.485 44 21 C40.88191019 19.55434018 38.25937366 17.79193651 35.5 15.75 C14.98923512 1.36854533 -10.91713156 -2.42006141 -35.3046875 1.64453125 C-40.72716821 2.62877985 -45.74767465 4.07401449 -50.8359375 6.23046875 C-53 7 -53 7 -57 7 C-57 6.34 -57 5.68 -57 5 C-56.030625 4.87625 -55.06125 4.7525 -54.0625 4.625 C-53.051875 4.41875 -52.04125 4.2125 -51 4 C-50.67 3.34 -50.34 2.68 -50 2 C-48.02 2 -46.04 2 -44 2 C-44 1.34 -44 0.68 -44 0 C-43.11248047 -0.09087891 -43.11248047 -0.09087891 -42.20703125 -0.18359375 C-41.02173828 -0.30927734 -41.02173828 -0.30927734 -39.8125 -0.4375 C-38.64654297 -0.55931641 -38.64654297 -0.55931641 -37.45703125 -0.68359375 C-35.0312811 -0.95822964 -35.0312811 -0.95822964 -32.8046875 -1.48828125 C-22.24432112 -3.41503333 -9.93771369 -4.62888243 0 0 Z " fill="#491F0E" transform="translate(412,143)"/>
<path d="M0 0 C0.495 1.485 0.495 1.485 1 3 C-0.9375 5.6875 -0.9375 5.6875 -3 8 C0.3 8 3.6 8 7 8 C6.67 8.99 6.34 9.98 6 11 C5.505 10.505 5.505 10.505 5 10 C0.16142469 9.2869468 -3.11301906 9.44772885 -7.3125 12.0625 C-10.2357629 15.25769433 -12.04116941 18.15767846 -14 22 C-14.66 21.67 -15.32 21.34 -16 21 C-16.61875 21.825 -17.2375 22.65 -17.875 23.5 C-18.926875 24.7375 -18.926875 24.7375 -20 26 C-20.66 26 -21.32 26 -22 26 C-22.061875 26.78375 -22.12375 27.5675 -22.1875 28.375 C-23.09603243 32.42845238 -24.67601339 35.52722968 -26.58984375 39.1875 C-29.00500445 44.004441 -30.98350586 49.00595918 -33 54 C-34.71676551 49.91492544 -33.13270573 46.57793176 -31.625 42.6875 C-31.21834106 41.63224121 -31.21834106 41.63224121 -30.8034668 40.55566406 C-24.19207825 24.0998352 -13.71537333 11.16093417 0 0 Z " fill="#99572E" transform="translate(207,167)"/>
<path d="M0 0 C-0.33 1.32 -0.66 2.64 -1 4 C-1.66 3.67 -2.32 3.34 -3 3 C-6.97008503 2.62546368 -9.3586894 2.67252225 -12.9375 4.5 C-15.29849839 7.36181623 -15.73622261 9.3262752 -15.48046875 13.03125 C-14.62597999 16.5325698 -12.88503578 17.97433658 -10 20 C-6.89747705 20.68360675 -4.16276004 21 -1 21 C-1 21.66 -1 22.32 -1 23 C-1.77085937 22.98839844 -2.54171875 22.97679687 -3.3359375 22.96484375 C-4.33882812 22.95582031 -5.34171875 22.94679688 -6.375 22.9375 C-7.87160156 22.92009766 -7.87160156 22.92009766 -9.3984375 22.90234375 C-11.98432453 22.81993398 -11.98432453 22.81993398 -14 24 C-14 23.01 -14 22.02 -14 21 C-14.99 20.67 -15.98 20.34 -17 20 C-19.82675845 16.3564185 -19.08191617 12.15442669 -18.75 7.8125 C-18.69005859 6.70745117 -18.69005859 6.70745117 -18.62890625 5.58007812 C-18.50177331 3.71259825 -18.25972678 1.8536952 -18 0 C-12.93067925 -2.53466037 -5.34549719 -1.12536783 0 0 Z " fill="#BC7541" transform="translate(236,282)"/>
<path d="M0 0 C3.85893365 2.111492 6.90118206 3.90118206 10 7 C11.13501953 7.38671875 11.13501953 7.38671875 12.29296875 7.78125 C15.61697404 9.27777186 17.29643223 11.13887151 19.6875 13.875 C20.45449219 14.73867187 21.22148437 15.60234375 22.01171875 16.4921875 C23.70597854 18.62915172 24.91883657 20.51390228 26 23 C24.68 23.33 23.36 23.66 22 24 C20.39965203 21.45399186 19.05922625 19.18190918 18.125 16.3125 C17.16937405 13.75182625 17.16937405 13.75182625 14.375 12.6875 C13.59125 12.460625 12.8075 12.23375 12 12 C11.731875 12.639375 11.46375 13.27875 11.1875 13.9375 C10 16 10 16 7 17 C7 16.34 7 15.68 7 15 C5.68 14.34 4.36 13.68 3 13 C4.875 7.125 4.875 7.125 6 6 C4.35 5.67 2.7 5.34 1 5 C0.67 3.35 0.34 1.7 0 0 Z " fill="#A55A28" transform="translate(444,156)"/>
<path d="M0 0 C-0.33 0.66 -0.66 1.32 -1 2 C-1.58338135 1.8563501 -2.1667627 1.7127002 -2.76782227 1.56469727 C-9.58047652 0.027953 -15.97508471 -0.20893703 -22.9375 -0.0625 C-30.70560617 0.07168993 -38.27342272 -0.13874216 -46 -1 C-46 -0.34 -46 0.32 -46 1 C-47.65 0.67 -49.3 0.34 -51 0 C-38.19654916 -8.53563389 -13.9713892 -4.65712973 0 0 Z " fill="#3F231D" transform="translate(287,150)"/>
<path d="M0 0 C10.8916718 3.26750154 20.23640273 7.88995699 28.94140625 15.265625 C31.08627646 17.13832648 31.08627646 17.13832648 34 19 C33.505 20.485 33.505 20.485 33 22 C19.76677753 15.6856705 19.76677753 15.6856705 18.09423828 12.00878906 C16.70255931 9.45396207 15.52048232 8.98048549 12.8671875 7.859375 C12.06152344 7.51132813 11.25585938 7.16328125 10.42578125 6.8046875 C9.58402344 6.45664063 8.74226563 6.10859375 7.875 5.75 C6.60076172 5.20472656 6.60076172 5.20472656 5.30078125 4.6484375 C3.20523482 3.75370981 1.10527117 2.8715404 -1 2 C-0.67 1.34 -0.34 0.68 0 0 Z " fill="#3B211B" transform="translate(288,151)"/>
<path d="M0 0 C2.875 1.3125 2.875 1.3125 5 3 C5.33 3.99 5.66 4.98 6 6 C5.34 6 4.68 6 4 6 C4 5.34 4 4.68 4 4 C0.31233808 2.81994818 -3.15110517 2.79006028 -7 3 C-7.99 3.66 -8.98 4.32 -10 5 C-10.5540567 10.88489457 -10.5540567 10.88489457 -8 16 C-5.33346095 16.36460453 -5.33346095 16.36460453 -2.375 16.1875 C-1.37210938 16.16042969 -0.36921875 16.13335937 0.6640625 16.10546875 C1.82035156 16.05326172 1.82035156 16.05326172 3 16 C3.99 13.03 4.98 10.06 6 7 C6.33 7 6.66 7 7 7 C7.47863079 10.41879139 7.76165157 12.93459454 5.6875 15.8359375 C2.52855653 18.83975429 0.82044394 19.97170883 -3.625 20.125 C-7.20582067 18.93139311 -9.30330716 17.61737834 -12 15 C-13.62334671 11.75330659 -13.69541503 8.49713522 -13 5 C-9.04184431 0.36606163 -6.01942875 -0.87555327 0 0 Z " fill="#502109" transform="translate(233,284)"/>
<path d="M0 0 C1.37047988 3.04464564 0.90822395 4.27079974 -0.1875 7.50390625 C-0.77632882 8.8635167 -1.38147104 10.21614126 -2 11.5625 C-2.32323242 12.27631836 -2.64646484 12.99013672 -2.97949219 13.72558594 C-9.10691342 26.95105003 -17.74059452 36.83670136 -28 47 C-28.66 46.67 -29.32 46.34 -30 46 C-27.13064885 41.43345818 -25.27284338 38.75761446 -20 37 C-19.67 36.01 -19.34 35.02 -19 34 C-18.34 34 -17.68 34 -17 34 C-17 33.01 -17 32.02 -17 31 C-16.34 31 -15.68 31 -15 31 C-14.8865625 30.41347656 -14.773125 29.82695312 -14.65625 29.22265625 C-13.94890619 26.82695013 -13.01553616 25.40681588 -11.5 23.4375 C-9.76352292 21.17099358 -8.92509236 19.77527707 -8 17 C-7.34 17 -6.68 17 -6 17 C-5.81824219 16.35933594 -5.63648438 15.71867187 -5.44921875 15.05859375 C-3.93729955 9.85604103 -2.24999329 4.92855673 0 0 Z " fill="#371D16" transform="translate(484,262)"/>
<path d="M0 0 C3.625 -0.1875 3.625 -0.1875 7 0 C3.81237635 2.12508244 1.73487777 2.5020163 -2 3 C-1.34 2.01 -0.68 1.02 0 0 Z M-4 3 C-3.01 3.33 -2.02 3.66 -1 4 C-1.33 4.66 -1.66 5.32 -2 6 C-2.66 6 -3.32 6 -4 6 C-4.020625 7.27875 -4.04125 8.5575 -4.0625 9.875 C-4.07410156 10.59429687 -4.08570313 11.31359375 -4.09765625 12.0546875 C-4.12649242 14.08185404 -4.12649242 14.08185404 -3 16 C-1.68 15.34 -0.36 14.68 1 14 C1 15.65 1 17.3 1 19 C2.4835001 18.57742724 3.96176424 18.13643678 5.4375 17.6875 C6.26121094 17.44386719 7.08492188 17.20023437 7.93359375 16.94921875 C8.61550781 16.63597656 9.29742187 16.32273437 10 16 C10.33 15.01 10.66 14.02 11 13 C11.66 13 12.32 13 13 13 C13.33 12.34 13.66 11.68 14 11 C13.70179167 14.57849992 13.25754642 15.76226484 10.5625 18.25 C6.72519804 20.87059646 4.67660364 21.36679244 0 21 C-2.80915461 19.72311154 -4.50106764 18.68900183 -6.3125 16.1875 C-7.22891715 13.27162724 -7.3107065 11.04492373 -7 8 C-5.5 5.125 -5.5 5.125 -4 3 Z " fill="#50200B" transform="translate(414,287)"/>
<path d="M0 0 C-1.68406269 0.65474408 -3.37246336 1.29833406 -5.0625 1.9375 C-6.00222656 2.29714844 -6.94195312 2.65679687 -7.91015625 3.02734375 C-14.78872353 5.1926576 -21.96980882 5.33021682 -29.125 5.6875 C-30.58873047 5.77741211 -30.58873047 5.77741211 -32.08203125 5.86914062 C-33.49935547 5.9397168 -33.49935547 5.9397168 -34.9453125 6.01171875 C-35.79625488 6.05772217 -36.64719727 6.10372559 -37.52392578 6.15112305 C-40.3543186 5.97837476 -42.43486618 5.17360751 -45 4 C-44.67 3.34 -44.34 2.68 -44 2 C-43.3922876 2.01571045 -42.7845752 2.0314209 -42.15844727 2.04760742 C-30.98078343 2.29712295 -20.19410405 2.39255697 -9.23071289 -0.02075195 C-5.84165221 -0.75944285 -3.30059042 -1.26174469 0 0 Z " fill="#4D1E0B" transform="translate(290,322)"/>
<path d="M0 0 C0.99 0.33 1.98 0.66 3 1 C4.00496852 4.01490557 4.10335303 6.04181692 4.0625 9.1875 C4.05347656 10.08855469 4.04445313 10.98960937 4.03515625 11.91796875 C4.02355469 12.60503906 4.01195312 13.29210937 4 14 C2.68 14.33 1.36 14.66 0 15 C1.32 15.33 2.64 15.66 4 16 C4 17.32 4 18.64 4 20 C0.52674819 21.1577506 -2.36067448 21.06866652 -6 21 C-6 20.67 -6 20.34 -6 20 C-8.97 19.67 -11.94 19.34 -15 19 C-14.505 17.515 -14.505 17.515 -14 16 C-13.34 16.33 -12.68 16.66 -12 17 C-6.71552254 17.6005088 -4.1622487 16.19428389 0 13 C1.21570074 12.00353536 1.21570074 12.00353536 1.1328125 10.0390625 C1.12894531 8.84410156 1.12894531 8.84410156 1.125 7.625 C1.12757813 6.83351563 1.13015625 6.04203125 1.1328125 5.2265625 C1.08617666 2.82656504 1.08617666 2.82656504 0 0 Z " fill="#C4763B" transform="translate(426,290)"/>
<path d="M0 0 C2.71831684 2.69346933 3.90308629 4.33638749 4.4609375 8.15625 C4.41839844 9.81140625 4.41839844 9.81140625 4.375 11.5 C4.35566406 13.15515625 4.35566406 13.15515625 4.3359375 14.84375 C3.76389233 20.21831395 2.14192034 23.50525472 -2 27 C-2.66 27 -3.32 27 -4 27 C-4 26.01 -4 25.02 -4 24 C-3.38125 23.835 -2.7625 23.67 -2.125 23.5 C0.70083267 21.50529458 1.0197799 19.38671176 1.6875 16.08984375 C2.43115353 11.11666076 2.14963105 7.56796598 0 3 C-2.97 3 -5.94 3 -9 3 C-9 3.66 -9 4.32 -9 5 C-9.9075 5.391875 -10.815 5.78375 -11.75 6.1875 C-15.14118394 8.0787372 -16.79032837 9.8554673 -19 13 C-19 10 -19 10 -16.875 7.5625 C-11.94492261 3.16830058 -6.92743191 -1.01377052 0 0 Z " fill="#512008" transform="translate(265,162)"/>
<path d="M0 0 C1.35276714 2.70553429 0.5907217 4.04639151 0 7 C-0.55033973 11.8105303 -0.55033973 11.8105303 1.5 15.9375 C6.10163487 17.89319482 10.38163615 17.53945462 15 16 C15.66 15.67 16.32 15.34 17 15 C16.7525 13.948125 16.7525 13.948125 16.5 12.875 C15.97584662 9.86111806 15.92900317 7.05286375 16 4 C17.5 5 17.5 5 19 7 C19.86446204 13.80763857 19.86446204 13.80763857 17.1875 17.5 C12.42990035 19.73887042 8.16071648 19.8450296 3 19 C-0.17336023 17.74034556 -0.82414547 16.88153708 -3 14 C-3.96123529 9.49522783 -3.51861603 6.05884107 -1.5 1.9375 C-1.005 1.298125 -0.51 0.65875 0 0 Z " fill="#4D1D06" transform="translate(376,166)"/>
<path d="M0 0 C1.32 0.66 2.64 1.32 4 2 C-14.94629474 8.39152112 -35.66490443 9.90599283 -55 4 C-55 3.67 -55 3.34 -55 3 C-53.66717225 2.94446551 -52.33361135 2.90653811 -51 2.875 C-50.2575 2.85179687 -49.515 2.82859375 -48.75 2.8046875 C-46 3 -46 3 -42.5 4 C-36.7384048 5.52568557 -30.91701218 5.21311129 -25 5.125 C-23.84371094 5.11597656 -22.68742187 5.10695313 -21.49609375 5.09765625 C-18.66384353 5.07424922 -15.83203381 5.04145995 -13 5 C-13 4.34 -13 3.68 -13 3 C-6.565 2.505 -6.565 2.505 0 2 C0 1.34 0 0.68 0 0 Z " fill="#97562F" transform="translate(421,321)"/>
<path d="M0 0 C2.31 0 4.62 0 7 0 C-4.25429808 9.47304227 -23.11026314 9.37483548 -37 9 C-37.33 8.34 -37.66 7.68 -38 7 C-37.44650879 6.98018066 -36.89301758 6.96036133 -36.32275391 6.93994141 C-19.28778311 6.51921443 -19.28778311 6.51921443 -3 2 C-2.01 2 -1.02 2 0 2 C0 1.34 0 0.68 0 0 Z " fill="#371C17" transform="translate(290,320)"/>
<path d="M0 0 C0.66 0 1.32 0 2 0 C2 0.66 2 1.32 2 2 C2.66 2 3.32 2 4 2 C4 2.99 4 3.98 4 5 C1 6 -2 7 -5 8 C-7.38969926 12.40207759 -7.41402573 16.44684132 -6.625 21.3125 C-6.13882056 23.21534984 -6.13882056 23.21534984 -4 24 C-5.9375 23.625 -5.9375 23.625 -8 23 C-9.44207941 20.11584117 -9.09394887 17.58278472 -9.0625 14.375 C-9.05347656 13.18648438 -9.04445313 11.99796875 -9.03515625 10.7734375 C-9.02355469 9.85820312 -9.01195312 8.94296875 -9 8 C-8.34 8 -7.68 8 -7 8 C-6.71125 7.38125 -6.4225 6.7625 -6.125 6.125 C-5 4 -5 4 -3 2 C-2.01 2 -1.02 2 0 2 C0 1.34 0 0.68 0 0 Z " fill="#BA7444" transform="translate(415,282)"/>
<path d="M0 0 C3.96 0 7.92 0 12 0 C11.67 0.66 11.34 1.32 11 2 C10.113125 1.896875 9.22625 1.79375 8.3125 1.6875 C4.86347163 1.73214502 4.86347163 1.73214502 2.125 4.0625 C-0.25040832 6.88209505 -0.25040832 6.88209505 -0.5625 10.5 C0.11854519 14.73761454 0.69161703 16.24301419 4 19 C7.29821703 19.99256688 10.58700601 20.56360573 14 21 C14 21.33 14 21.66 14 22 C11.03 22.33 8.06 22.66 5 23 C5 22.34 5 21.68 5 21 C4.38125 20.896875 3.7625 20.79375 3.125 20.6875 C1 20 1 20 -1 17 C-1.99 16.67 -2.98 16.34 -4 16 C-4 15.34 -4 14.68 -4 14 C-3.34 14 -2.68 14 -2 14 C-2.04125 12.80375 -2.0825 11.6075 -2.125 10.375 C-2.13851708 6.57670047 -1.42009753 3.55024382 0 0 Z " fill="#C98459" transform="translate(255,257)"/>
<path d="M0 0 C0.74572266 -0.00322266 1.49144531 -0.00644531 2.25976562 -0.00976562 C9.32606267 0.0595736 9.32606267 0.0595736 12.3125 2.3125 C13.5625 5.4375 13.5625 5.4375 14.3125 8.3125 C13.39017578 7.78849609 13.39017578 7.78849609 12.44921875 7.25390625 C11.64097656 6.79886719 10.83273437 6.34382812 10 5.875 C9.19949219 5.42253906 8.39898437 4.97007812 7.57421875 4.50390625 C2.87885051 2.03052575 -1.47921858 1.65367466 -6.6875 2.3125 C-10.20894115 4.20364432 -13.01601614 6.3441846 -15.6875 9.3125 C-15.6875 7.3325 -15.6875 5.3525 -15.6875 3.3125 C-10.24426865 0.58728906 -6.04960821 -0.13278332 0 0 Z " fill="#C6845C" transform="translate(370.6875,233.6875)"/>
<path d="M0 0 C2.5 2.0625 2.5 2.0625 5 5 C5.25 8.5625 5.25 8.5625 5 12 C5.32612115 13.33511568 5.65977847 14.66840764 6 16 C6.07708723 17.36800819 6.10803609 18.73923592 6.09765625 20.109375 C6.09443359 20.86347656 6.09121094 21.61757812 6.08789062 22.39453125 C6.07951172 23.17183594 6.07113281 23.94914062 6.0625 24.75 C6.05798828 25.54277344 6.05347656 26.33554688 6.04882812 27.15234375 C6.03708565 29.10159508 6.01915146 31.05080738 6 33 C5.34 33 4.68 33 4 33 C4.03480469 32.03320312 4.06960938 31.06640625 4.10546875 30.0703125 C4.29361571 21.0213396 4.17429979 12.76144969 -1 5 C-3.05003955 3.80767387 -3.05003955 3.80767387 -5 3 C-3.35 2.01 -1.7 1.02 0 0 Z " fill="#BB7444" transform="translate(331,216)"/>
<path d="M0 0 C2.875 2.5625 2.875 2.5625 5 5 C4.67 5.66 4.34 6.32 4 7 C2.68 6.67 1.36 6.34 0 6 C0.33 6.99 0.66 7.98 1 9 C-0.98 9.99 -0.98 9.99 -3 11 C-3.66 9.35 -4.32 7.7 -5 6 C-4.01 5.34 -3.02 4.68 -2 4 C-2 3.34 -2 2.68 -2 2 C-3.98 2 -5.96 2 -8 2 C-8.33 2.66 -8.66 3.32 -9 4 C-8.625 2.0625 -8.625 2.0625 -8 0 C-4.99054157 -1.50472922 -3.20590237 -0.88005163 0 0 Z " fill="#411A0D" transform="translate(387,163)"/>
<path d="M0 0 C0.66 0.33 1.32 0.66 2 1 C1.67 1.66 1.34 2.32 1 3 C-0.65 2.67 -2.3 2.34 -4 2 C-4.33 2.66 -4.66 3.32 -5 4 C-5.66 4 -6.32 4 -7 4 C-9.2119625 5.07492668 -9.2119625 5.07492668 -11 7 C-11.48340432 9.7386225 -11.48340432 9.7386225 -11.25 12.6875 C-11.21390625 13.68136719 -11.1778125 14.67523438 -11.140625 15.69921875 C-11.09421875 16.45847656 -11.0478125 17.21773437 -11 18 C-11.66 17.67 -12.32 17.34 -13 17 C-14.39439741 12.33564246 -14.46621965 8.9157886 -12.25 4.5625 C-8.29675902 0.06019777 -5.83766643 -0.31841817 0 0 Z " fill="#4D1E0A" transform="translate(403,200)"/>
<path d="M0 0 C0.66 0.33 1.32 0.66 2 1 C1 2.875 1 2.875 -1 5 C-2.91015625 5.5703125 -2.91015625 5.5703125 -5.0625 6 C-7.16648366 6.38585386 -7.16648366 6.38585386 -9 7 C-10.28436734 8.9837767 -10.28436734 8.9837767 -11 11 C-13.125 11.75 -13.125 11.75 -15 12 C-15 12.66 -15 13.32 -15 14 C-17.375 15.6875 -17.375 15.6875 -20 17 C-20.66 16.67 -21.32 16.34 -22 16 C-15.42242625 9.87337102 -8.414756 3.49291759 0 0 Z " fill="#995731" transform="translate(352,152)"/>
<path d="M0 0 C3.38558986 1.88811742 5.67917304 3.93005765 8.25 6.8125 C7.26 7.3075 7.26 7.3075 6.25 7.8125 C5.816875 7.35875 5.38375 6.905 4.9375 6.4375 C0.70635655 2.36306557 -3.23139929 1.78032846 -8.875 1.625 C-12.81222845 1.48288004 -12.81222845 1.48288004 -15.75 3.8125 C-16.74 3.4825 -17.73 3.1525 -18.75 2.8125 C-12.65081365 -2.19196059 -7.44899452 -2.35884827 0 0 Z " fill="#54230B" transform="translate(376.75,236.1875)"/>
<path d="M0 0 C0.66 0.33 1.32 0.66 2 1 C2 4.96 2 8.92 2 13 C6.19000879 14.08811297 6.19000879 14.08811297 9.75 12.5625 C10.8225 12.046875 11.895 11.53125 13 11 C11.63016497 14.16115776 11.0109362 14.9927092 8 17 C6.0103005 17.39013716 4.00980131 17.73202649 2 18 C-1.20211336 13.19682995 -1.35411839 7.52941707 -0.5625 1.875 C-0.376875 1.25625 -0.19125 0.6375 0 0 Z " fill="#CA875E" transform="translate(444,244)"/>
<path d="M0 0 C0.33 0 0.66 0 1 0 C1.58716179 13.917909 -0.52232294 26.78926484 -5 40 C-6.125 36.25 -6.125 36.25 -5 34 C-4.87625 32.72125 -4.7525 31.4425 -4.625 30.125 C-4.2525315 26.36426971 -3.49563934 22.89423332 -2.5 19.25 C-0.81425347 12.86883265 -0.30760207 6.57632017 0 0 Z " fill="#995832" transform="translate(486,228)"/>
<path d="M0 0 C3.44954305 -0.61914875 5.45392516 -0.3542827 8.40234375 1.55859375 C10.64967423 3.32308545 12.84568701 5.12335402 15 7 C14.67 7.99 14.34 8.98 14 10 C9.08485969 7.65470463 4.36655232 5.27491424 0 2 C0 1.34 0 0.68 0 0 Z " fill="#441C0F" transform="translate(307,163)"/>
<path d="M0 0 C4.07684701 1.48248982 6.40244265 4.41180317 8.75 8 C9.421875 10.23046875 9.421875 10.23046875 9.75 12 C8.76 12 7.77 12 6.75 12 C6.54246094 11.43410156 6.33492187 10.86820313 6.12109375 10.28515625 C5.15493866 7.98497949 4.22797423 6.01464498 2.75 4 C-0.87653665 2.86043273 -0.87653665 2.86043273 -4.25 3 C-4.25 3.66 -4.25 4.32 -4.25 5 C-5.75 6.625 -5.75 6.625 -7.25 8 C-7.91 7.67 -8.57 7.34 -9.25 7 C-3.59042553 0 -3.59042553 0 0 0 Z " fill="#50220C" transform="translate(200.25,234)"/>
<path d="M0 0 C3.48896577 3.48896577 4.57848592 6.40574946 6.25 10.9375 C6.53101563 11.65357422 6.81203125 12.36964844 7.1015625 13.10742188 C8.50532292 16.85657408 9.23198616 19.18411833 8 23 C7.34 22.67 6.68 22.34 6 22 C5.5859375 19.71484375 5.5859375 19.71484375 5.375 16.9375 C5.30023438 16.01839844 5.22546875 15.09929687 5.1484375 14.15234375 C5.09945313 13.44207031 5.05046875 12.73179687 5 12 C4.34 12 3.68 12 3 12 C2.01 8.04 1.02 4.08 0 0 Z " fill="#7C4929" transform="translate(477,191)"/>
<path d="M0 0 C1.88138672 0.05414063 1.88138672 0.05414063 3.80078125 0.109375 C5.22970703 0.17898437 5.22970703 0.17898437 6.6875 0.25 C7.0175 1.9 7.3475 3.55 7.6875 5.25 C6.8625 4.734375 6.0375 4.21875 5.1875 3.6875 C0.95876839 1.95069952 -1.98817534 1.74317347 -6.3125 3.25 C-9.16804017 5.68727882 -9.16804017 5.68727882 -11.3125 8.25 C-11.9725 8.25 -12.6325 8.25 -13.3125 8.25 C-12.9975374 5.31034904 -12.32678279 4.26449597 -10.21875 2.125 C-6.55175644 -0.2408023 -4.32245191 -0.16158699 0 0 Z " fill="#B87447" transform="translate(298.3125,180.75)"/>
<path d="M0 0 C1.09570312 0.00902344 2.19140625 0.01804687 3.3203125 0.02734375 C4.16335938 0.03894531 5.00640625 0.05054688 5.875 0.0625 C6.205 0.7225 6.535 1.3825 6.875 2.0625 C6.11574219 2.03929687 5.35648437 2.01609375 4.57421875 1.9921875 C3.08341797 1.96511719 3.08341797 1.96511719 1.5625 1.9375 C0.57636719 1.91429687 -0.40976562 1.89109375 -1.42578125 1.8671875 C-4.34906527 1.85567361 -4.34906527 1.85567361 -7.125 4.0625 C-7.52723991 6.13156777 -7.52723991 6.13156777 -7.375 8.4375 C-7.35953125 9.20835937 -7.3440625 9.97921875 -7.328125 10.7734375 C-7.13338739 12.9679806 -6.72415017 14.94614696 -6.125 17.0625 C-6.785 17.0625 -7.445 17.0625 -8.125 17.0625 C-10.60693472 13.33959792 -10.54500046 10.37170471 -10.125 6.0625 C-9.25 3.125 -9.25 3.125 -8.125 1.0625 C-5.36047967 -0.31976016 -3.0788637 -0.03275387 0 0 Z " fill="#B9784D" transform="translate(356.125,276.9375)"/>
<path d="M0 0 C3.07142856 2.67297297 3.70243698 4.91209561 4.0625 9.0078125 C3.96606748 12.08159917 2.94753206 13.66296152 1 16 C-1.6875 18.3125 -1.6875 18.3125 -4 20 C-4.33 19.01 -4.66 18.02 -5 17 C-4.18144531 16.65324219 -3.36289062 16.30648437 -2.51953125 15.94921875 C0.37053154 14.17957861 0.37053154 14.17957861 0.48828125 10.64453125 C0.40126953 8.74767578 0.40126953 8.74767578 0.3125 6.8125 C0.26738281 5.54019531 0.22226562 4.26789063 0.17578125 2.95703125 C0.08876953 1.49330078 0.08876953 1.49330078 0 0 Z " fill="#4C1D08" transform="translate(353,187)"/>
<path d="M0 0 C1.32 0.33 2.64 0.66 4 1 C3.50371094 1.46148437 3.00742188 1.92296875 2.49609375 2.3984375 C-2.7922173 7.47601889 -6.98433242 12.87610694 -11 19 C-11.33 18.01 -11.66 17.02 -12 16 C-10.48828125 13.4765625 -10.48828125 13.4765625 -8.3125 10.625 C-7.60738281 9.68914062 -6.90226563 8.75328125 -6.17578125 7.7890625 C-4.13729341 5.17599192 -2.07888874 2.58101311 0 0 Z " fill="#4A1D08" transform="translate(196,173)"/>
<path d="M0 0 C2.75230148 0.06009392 5.4992444 0.14712621 8.25 0.25 C9.41595703 0.27126953 9.41595703 0.27126953 10.60546875 0.29296875 C16.42997175 0.54187913 16.42997175 0.54187913 19.546875 3.046875 C20.02640625 3.69140625 20.5059375 4.3359375 21 5 C13.60860415 4.59248958 7.00177279 3.41492814 0 1 C0 0.67 0 0.34 0 0 Z " fill="#3C1F19" transform="translate(229,323)"/>
<path d="M0 0 C0.66 0 1.32 0 2 0 C2 0.66 2 1.32 2 2 C2.66 2 3.32 2 4 2 C6.54464286 9.63392857 6.54464286 9.63392857 4.625 14 C4.08875 14.99 3.5525 15.98 3 17 C2.01 17 1.02 17 0 17 C-0.33 17.66 -0.66 18.32 -1 19 C-1.66 18.34 -2.32 17.68 -3 17 C-2.175 16.319375 -1.35 15.63875 -0.5 14.9375 C2.30127117 12.19023356 2.30127117 12.19023356 2.4375 8.5 C2.03618926 5.28951409 1.40393403 2.89561393 0 0 Z " fill="#B77445" transform="translate(455,182)"/>
<path d="M0 0 C0.66 0 1.32 0 2 0 C2.61364554 7.24101736 2.61364554 7.24101736 -0.375 10.9375 C-3.81612328 13.64123972 -5.34068424 14.12370451 -9.625 14.0625 C-10.85089844 14.04896484 -10.85089844 14.04896484 -12.1015625 14.03515625 C-13.04128906 14.01775391 -13.04128906 14.01775391 -14 14 C-14 13.67 -14 13.34 -14 13 C-13.28972656 12.87882813 -12.57945312 12.75765625 -11.84765625 12.6328125 C-10.92855469 12.46523437 -10.00945312 12.29765625 -9.0625 12.125 C-7.68771484 11.88136719 -7.68771484 11.88136719 -6.28515625 11.6328125 C-5.53105469 11.42398438 -4.77695313 11.21515625 -4 11 C-3.67 10.34 -3.34 9.68 -3 9 C-2.01 9 -1.02 9 0 9 C0 6.03 0 3.06 0 0 Z " fill="#4E1E06" transform="translate(217,183)"/>
<path d="M0 0 C3.5610073 1.48508376 5.60021023 3.48541171 8.125 6.375 C8.80820312 7.14585937 9.49140625 7.91671875 10.1953125 8.7109375 C11.80851927 10.75712617 12.94932355 12.62785421 14 15 C12.68 15.33 11.36 15.66 10 16 C8.46399173 13.55635047 7.10249395 11.28551886 6.125 8.5625 C4.6158129 5.12490715 2.48331134 2.81006283 0 0 Z " fill="#7B4826" transform="translate(456,164)"/>
<path d="M0 0 C2.31309135 2.50584896 2.97826344 3.72285889 3.25 7.1875 C3 10 3 10 2 11 C-2.98770821 10.57731286 -7.28723333 9.7672875 -12 8 C-12 7.67 -12 7.34 -12 7 C-10.3745692 7.14095064 -8.74965949 7.28792087 -7.125 7.4375 C-6.22007812 7.51871094 -5.31515625 7.59992188 -4.3828125 7.68359375 C-2 8 -2 8 0 9 C0 6.03 0 3.06 0 0 Z " fill="#54230D" transform="translate(297,288)"/>
<path d="M0 0 C0 0.33 0 0.66 0 1 C-0.969375 1.12375 -1.93875 1.2475 -2.9375 1.375 C-3.948125 1.58125 -4.95875 1.7875 -6 2 C-6.33 2.66 -6.66 3.32 -7 4 C-7.66 4 -8.32 4 -9 4 C-9.33 4.66 -9.66 5.32 -10 6 C-10.66 5.34 -11.32 4.68 -12 4 C-12.66 5.32 -13.32 6.64 -14 8 C-14.33 6.68 -14.66 5.36 -15 4 C-9.56801057 -0.55112628 -7.00960732 -1.19031068 0 0 Z " fill="#4E220E" transform="translate(302,183)"/>
<path d="M0 0 C0 0.66 0 1.32 0 2 C-1.87945312 2.50660156 -1.87945312 2.50660156 -3.796875 3.0234375 C-5.44797678 3.47373798 -7.09901515 3.92427101 -8.75 4.375 C-9.575 4.59671875 -10.4 4.8184375 -11.25 5.046875 C-12.04921875 5.26601562 -12.8484375 5.48515625 -13.671875 5.7109375 C-14.4050293 5.90993652 -15.13818359 6.10893555 -15.89355469 6.31396484 C-18.06067531 7.01976097 -19.99004457 7.93146638 -22 9 C-22.66 8.34 -23.32 7.68 -24 7 C-21.41767086 6.01811439 -18.83421317 5.03940411 -16.25 4.0625 C-15.15558594 3.64581055 -15.15558594 3.64581055 -14.0390625 3.22070312 C-13.33007812 2.95322266 -12.62109375 2.68574219 -11.890625 2.41015625 C-10.91657715 2.04096069 -10.91657715 2.04096069 -9.92285156 1.66430664 C-6.396995 0.44619393 -3.79597814 0 0 0 Z " fill="#97572E" transform="translate(378,144)"/>
<path d="M0 0 C9.54794521 -0.56164384 9.54794521 -0.56164384 14 3 C16.3125 5.0625 16.3125 5.0625 18 7 C18 7.66 18 8.32 18 9 C16 9 16 9 13.4375 6.5625 C12.633125 5.716875 11.82875 4.87125 11 4 C9.33657163 2.33657163 7.2174291 2.63951903 4.9375 2.4375 C3.55884766 2.31181641 3.55884766 2.31181641 2.15234375 2.18359375 C1.08693359 2.09271484 1.08693359 2.09271484 0 2 C0 1.34 0 0.68 0 0 Z " fill="#512009" transform="translate(228,215)"/>
<path d="M0 0 C0.99 0.33 1.98 0.66 3 1 C3 1.66 3 2.32 3 3 C3.556875 3.20625 4.11375 3.4125 4.6875 3.625 C7.85840149 5.51040088 9.68729479 8.15359359 12 11 C12.99 11.66 13.98 12.32 15 13 C14.67 13.66 14.34 14.32 14 15 C9.15020839 10.83951887 4.35555198 6.68221838 0 2 C0 1.34 0 0.68 0 0 Z " fill="#3B221E" transform="translate(41,292)"/>
<path d="M0 0 C5.15171623 -0.09038099 9.91913204 0.15318867 15 1 C15.33 2.32 15.66 3.64 16 5 C15.360625 4.67 14.72125 4.34 14.0625 4 C9.38024307 2.47109978 4.30619097 1.97151003 -0.27734375 4.015625 C-0.84582031 4.34046875 -1.41429687 4.6653125 -2 5 C-1.34 3.35 -0.68 1.7 0 0 Z " fill="#C6835B" transform="translate(414,241)"/>
<path d="M0 0 C0.33 0 0.66 0 1 0 C1 7.26 1 14.52 1 22 C0.67 22 0.34 22 0 22 C-0.38991633 19.08462559 -0.76239 16.16878665 -1.125 13.25 C-1.23714844 12.425 -1.34929687 11.6 -1.46484375 10.75 C-1.56152344 9.95078125 -1.65820312 9.1515625 -1.7578125 8.328125 C-1.8520752 7.5949707 -1.94633789 6.86181641 -2.04345703 6.10644531 C-1.99185635 3.60526153 -1.25429455 2.13694627 0 0 Z " fill="#844017" transform="translate(348,222)"/>
<path d="M0 0 C3.37991014 3.11307513 5.82236619 5.50358001 7 10 C7.07646165 12.3320802 7.09143299 14.66845878 7 17 C6.67 17 6.34 17 6 17 C5.74476563 16.11248047 5.74476563 16.11248047 5.484375 15.20703125 C3.96999567 10.26918802 2.31270355 7.0225686 -1 3 C-0.67 2.01 -0.34 1.02 0 0 Z " fill="#C48259" transform="translate(243,216)"/>
<path d="M0 0 C0.99 0.33 1.98 0.66 3 1 C4.00496852 4.01490557 4.10335303 6.04181692 4.0625 9.1875 C4.05347656 10.08855469 4.04445313 10.98960937 4.03515625 11.91796875 C4.02355469 12.60503906 4.01195312 13.29210937 4 14 C2.35 14.33 0.7 14.66 -1 15 C-0.34 14.01 0.32 13.02 1 12 C1.2786158 9.81663332 1.2786158 9.81663332 1.1875 7.5 C1.18105469 6.7265625 1.17460937 5.953125 1.16796875 5.15625 C1.0730565 2.81651151 1.0730565 2.81651151 0 0 Z " fill="#B47145" transform="translate(426,290)"/>
<path d="M0 0 C0.33 0 0.66 0 1 0 C1 2.31 1 4.62 1 7 C1.99 6.67 2.98 6.34 4 6 C3.50168276 9.68754757 2.89932357 11.60490662 0 14 C-0.99 13.67 -1.98 13.34 -3 13 C-2.68289063 12.43796875 -2.36578125 11.8759375 -2.0390625 11.296875 C-0.93125475 8.84803683 -0.61024601 6.91612145 -0.375 4.25 C-0.30023438 3.45078125 -0.22546875 2.6515625 -0.1484375 1.828125 C-0.09945313 1.22484375 -0.05046875 0.6215625 0 0 Z " fill="#B56F3C" transform="translate(306,187)"/>
<path d="M0 0 C0.33 0.99 0.66 1.98 1 3 C0.67 3.66 0.34 4.32 0 5 C0.495 5.78375 0.99 6.5675 1.5 7.375 C3 10 3 10 2 14 C0.02 11.36 -1.96 8.72 -4 6 C-2 2 -2 2 0 0 Z " fill="#995830" transform="translate(329,169)"/>
<path d="M0 0 C0.66 0 1.32 0 2 0 C3.95021536 6.46008837 4.22262303 12.2718373 4 19 C3.67 19 3.34 19 3 19 C2.92652344 18.07767578 2.92652344 18.07767578 2.8515625 17.13671875 C2.77679688 16.32847656 2.70203125 15.52023438 2.625 14.6875 C2.55539062 13.88699219 2.48578125 13.08648437 2.4140625 12.26171875 C2.10435574 9.72775559 2.10435574 9.72775559 0 7 C-0.07905064 4.66800612 -0.08798769 2.33167378 0 0 Z " fill="#5B2B13" transform="translate(332,226)"/>
<path d="M0 0 C1.62490954 -0.02698189 3.24994633 -0.04638757 4.875 -0.0625 C5.77992188 -0.07410156 6.68484375 -0.08570313 7.6171875 -0.09765625 C10 0 10 0 12 1 C11.67 1.99 11.34 2.98 11 4 C10.34 3.67 9.68 3.34 9 3 C4.76028942 2.76446052 1.63821698 2.67154114 -2 5 C-1.34 3.35 -0.68 1.7 0 0 Z " fill="#C38259" transform="translate(394,198)"/>
<path d="M0 0 C4.88049925 3.9419417 9.0580583 8.11950075 13 13 C10.69 12.34 8.38 11.68 6 11 C5.938125 10.4225 5.87625 9.845 5.8125 9.25 C4.68990338 6.14127091 2.5461526 5.02386489 0 3 C0 2.01 0 1.02 0 0 Z " fill="#9C5B2F" transform="translate(316,171)"/>
<path d="M0 0 C1.010625 0.33 2.02125 0.66 3.0625 1 C6.75479911 2.07001321 10.15248207 2.15704155 14 2 C14 2.66 14 3.32 14 4 C10.86128812 5.56935594 8.46144178 5.35201103 5 5 C2.0625 2.5 2.0625 2.5 0 0 Z " fill="#501F0B" transform="translate(392,218)"/>
<path d="M0 0 C0.66 0 1.32 0 2 0 C2 0.66 2 1.32 2 2 C2.99 2.33 3.98 2.66 5 3 C5 4.32 5 5.64 5 7 C8.3 7.66 11.6 8.32 15 9 C15 9.33 15 9.66 15 10 C10.88371127 10.3293031 8.43096298 10.2114158 4.6875 8.375 C1.66519366 5.70412463 0.88278218 3.8842416 0 0 Z " fill="#5A270F" transform="translate(431,193)"/>
<path d="M0 0 C1.32 0.33 2.64 0.66 4 1 C-0.29 3.64 -4.58 6.28 -9 9 C-9.99 8.34 -10.98 7.68 -12 7 C-10.35 6.67 -8.7 6.34 -7 6 C-7 5.34 -7 4.68 -7 4 C-5.5459375 3.2884375 -5.5459375 3.2884375 -4.0625 2.5625 C-1.19522563 1.29806053 -1.19522563 1.29806053 0 0 Z " fill="#361A15" transform="translate(445,313)"/>
<path d="M0 0 C0.99 0.33 1.98 0.66 3 1 C4.42857143 9.57142857 4.42857143 9.57142857 2 13 C1.34 12.67 0.68 12.34 0 12 C0 8 0 4 0 0 Z " fill="#C68155" transform="translate(273,264)"/>
<path d="M0 0 C2.875 2.5625 2.875 2.5625 5 5 C4.67 5.66 4.34 6.32 4 7 C3.13375 6.175 2.2675 5.35 1.375 4.5 C-1.17890641 2.34134101 -1.86639751 2.0123706 -5.375 1.6875 C-6.24125 1.790625 -7.1075 1.89375 -8 2 C-8.33 2.66 -8.66 3.32 -9 4 C-8.625 2.0625 -8.625 2.0625 -8 0 C-4.99054157 -1.50472922 -3.20590237 -0.88005163 0 0 Z " fill="#522209" transform="translate(387,163)"/>
<path d="M0 0 C0.33 0 0.66 0 1 0 C1.33 2.31 1.66 4.62 2 7 C-1.31371 9.20914 -2.3446021 9.22481553 -6.1875 9.125 C-7.08855469 9.10695313 -7.98960937 9.08890625 -8.91796875 9.0703125 C-9.60503906 9.04710937 -10.29210937 9.02390625 -11 9 C-11 8.67 -11 8.34 -11 8 C-9.1128125 7.690625 -9.1128125 7.690625 -7.1875 7.375 C-3.51890422 6.49193978 -3.17283915 6.27006117 -1 2.875 C-0.67 1.92625 -0.34 0.9775 0 0 Z " fill="#B97344" transform="translate(334,250)"/>
<path d="M0 0 C0.3403125 0.86625 0.3403125 0.86625 0.6875 1.75 C2.44810585 4.76818146 4.0095224 6.1548117 7 8 C9.99372438 8.60778633 12.95082107 8.86713817 16 9 C16 9.33 16 9.66 16 10 C4.34916673 10.40721359 4.34916673 10.40721359 1 8 C-0.3125 4.375 -0.3125 4.375 -1 1 C-0.67 0.67 -0.34 0.34 0 0 Z " fill="#B16F46" transform="translate(193,188)"/>
<path d="M0 0 C0 3 0 3 -2 6 C-1.34 6 -0.68 6 0 6 C0 6.66 0 7.32 0 8 C1.65 8.33 3.3 8.66 5 9 C4.34 9.66 3.68 10.32 3 11 C0.69 10.01 -1.62 9.02 -4 8 C-3.50168276 4.31245243 -2.89932357 2.39509338 0 0 Z " fill="#4E1E09" transform="translate(280,284)"/>
<path d="M0 0 C1.31554985 0.4495045 2.62738358 0.90989716 3.9375 1.375 C5.03384766 1.75785156 5.03384766 1.75785156 6.15234375 2.1484375 C8 3 8 3 9 5 C9.039992 6.99960012 9.04346799 9.00047242 9 11 C8.34 10.34 7.68 9.68 7 9 C7 8.01 7 7.02 7 6 C6.01 5.67 5.02 5.34 4 5 C2.65909241 4.34870203 1.32407669 3.68486725 0 3 C0 2.01 0 1.02 0 0 Z " fill="#C3815B" transform="translate(226,232)"/>
<path d="M0 0 C0.99 0.33 1.98 0.66 3 1 C2.34 4.63 1.68 8.26 1 12 C0.34 12 -0.32 12 -1 12 C-1.2226746 10.56465159 -1.42761906 9.12654475 -1.625 7.6875 C-1.74101562 6.88699219 -1.85703125 6.08648437 -1.9765625 5.26171875 C-2 3 -2 3 0 0 Z " fill="#C9845C" transform="translate(220,217)"/>
<path d="M0 0 C0.98120464 3.05263664 0.98120464 4.94736336 0 8 C-0.99 8 -1.98 8 -3 8 C-3.12375 8.639375 -3.2475 9.27875 -3.375 9.9375 C-3.58125 10.618125 -3.7875 11.29875 -4 12 C-4.99 12.495 -4.99 12.495 -6 13 C-4.58707905 8.1725201 -2.57025846 4.2837641 0 0 Z M1 2 C3 3 3 3 3 3 Z " fill="#432723" transform="translate(36,197)"/>
<path d="M0 0 C2.31 0.33 4.62 0.66 7 1 C1.85913339 4.42724441 -3.00797796 4.1015597 -9 4 C-7.68 3.67 -6.36 3.34 -5 3 C-5 2.34 -5 1.68 -5 1 C-3.35 1.33 -1.7 1.66 0 2 C0 1.34 0 0.68 0 0 Z " fill="#3C221E" transform="translate(123,322)"/>
<path d="M0 0 C1.04005702 3.38018531 1.08004482 6.4780279 1 10 C1.66 10 2.32 10 3 10 C2.67 10.99 2.34 11.98 2 13 C1.01 12.67 0.02 12.34 -1 12 C-2.24834144 9.50331711 -1.95155125 8.18670849 -1.625 5.4375 C-1.53476562 4.63183594 -1.44453125 3.82617188 -1.3515625 2.99609375 C-1 1 -1 1 0 0 Z " fill="#50220C" transform="translate(355,243)"/>
<path d="M0 0 C2.88749784 1.44374892 3.3475201 3.41368961 4.6875 6.3125 C5.14511719 7.27800781 5.60273438 8.24351562 6.07421875 9.23828125 C7 12 7 12 6 16 C3.69 11.05 1.38 6.1 -1 1 C-0.67 0.67 -0.34 0.34 0 0 Z " fill="#4D1D09" transform="translate(337,193)"/>
<path d="M0 0 C1.76462683 3.08809695 2 4.23312136 2 8 C3.32 8.33 4.64 8.66 6 9 C6.33 10.65 6.66 12.3 7 14 C2.87603332 12.62534444 2.03266411 10.78496076 0 7 C-0.25 3.125 -0.25 3.125 0 0 Z " fill="#4D1F09" transform="translate(286,189)"/>
<path d="M0 0 C0.99 0.33 1.98 0.66 3 1 C2.525625 1.845625 2.05125 2.69125 1.5625 3.5625 C-0.05721513 7.12587329 -0.61256143 10.12561425 -1 14 C-1.66 14 -2.32 14 -3 14 C-2.48594831 9.03083364 -1.76615118 4.70973649 0 0 Z " fill="#C4835C" transform="translate(311,235)"/>
<path d="M0 0 C-0.33 0.99 -0.66 1.98 -1 3 C-2.670625 3.2165625 -2.670625 3.2165625 -4.375 3.4375 C-7.82142047 3.78372035 -7.82142047 3.78372035 -10 5 C-10.66 4.34 -11.32 3.68 -12 3 C-10.75336669 2.49166409 -9.50250613 1.99368855 -8.25 1.5 C-7.55390625 1.2215625 -6.8578125 0.943125 -6.140625 0.65625 C-4 0 -4 0 0 0 Z " fill="#3F251C" transform="translate(236,150)"/>
<path d="M0 0 C0.33 0.99 0.66 1.98 1 3 C-1.76452033 4.38226016 -4.0461363 4.09525387 -7.125 4.0625 C-8.22070312 4.05347656 -9.31640625 4.04445313 -10.4453125 4.03515625 C-11.70988281 4.01775391 -11.70988281 4.01775391 -13 4 C-12.67 3.01 -12.34 2.02 -12 1 C-11.34 1.33 -10.68 1.66 -10 2 C-6.04437178 2.25797575 -3.40340307 2.09440189 0 0 Z " fill="#B67447" transform="translate(424,305)"/>
<path d="M0 0 C1.67542976 0.28604898 3.34385343 0.61781233 5 1 C3.68 3.31 2.36 5.62 1 8 C0.34 7.67 -0.32 7.34 -1 7 C-1.04254356 5.00045254 -1.04080783 2.99958364 -1 1 C-0.67 0.67 -0.34 0.34 0 0 Z " fill="#C57F53" transform="translate(275,283)"/>
<path d="M0 0 C0.33 0.66 0.66 1.32 1 2 C3.02463255 2.65213292 3.02463255 2.65213292 5 3 C5 3.66 5 4.32 5 5 C4.38125 5.268125 3.7625 5.53625 3.125 5.8125 C0.7004767 6.95556848 0.7004767 6.95556848 -1 10 C-0.67 6.7 -0.34 3.4 0 0 Z " fill="#41231E" transform="translate(26,221)"/>
<path d="M0 0 C0 0.99 0 1.98 0 3 C-1.4562672 3.36256858 -2.91511185 3.71479793 -4.375 4.0625 C-5.59316406 4.35833984 -5.59316406 4.35833984 -6.8359375 4.66015625 C-9 5 -9 5 -11 4 C-11 3.34 -11 2.68 -11 2 C-10.06027344 1.90912109 -10.06027344 1.90912109 -9.1015625 1.81640625 C-7.87566406 1.69072266 -7.87566406 1.69072266 -6.625 1.5625 C-5.81289063 1.48128906 -5.00078125 1.40007812 -4.1640625 1.31640625 C-1.95727195 1.10909886 -1.95727195 1.10909886 0 0 Z " fill="#BA7953" transform="translate(392,183)"/>
<path d="M0 0 C1.32 0.66 2.64 1.32 4 2 C2.95125002 4.62187494 2.35068687 5.79371361 -0.125 7.25 C-0.74375 7.4975 -1.3625 7.745 -2 8 C-1.34 5.36 -0.68 2.72 0 0 Z " fill="#BB7642" transform="translate(375,287)"/>
<path d="M0 0 C0 3 0 3 -1.6875 4.75 C-4 6 -4 6 -6.75 5.6875 C-7.4925 5.460625 -8.235 5.23375 -9 5 C-6.08596738 3.05731159 -3.14191424 1.53604696 0 0 Z " fill="#C38157" transform="translate(456,255)"/>
<path d="M0 0 C0.33 0 0.66 0 1 0 C1.12117188 0.61488281 1.24234375 1.22976562 1.3671875 1.86328125 C1.53476562 2.67152344 1.70234375 3.47976562 1.875 4.3125 C2.03742188 5.11300781 2.19984375 5.91351563 2.3671875 6.73828125 C2.94478999 9.25301118 2.94478999 9.25301118 5 12 C4.01 12 3.02 12 2 12 C-0.89368124 8.35610511 -1.41741787 5.59159659 -1 1 C-0.67 0.67 -0.34 0.34 0 0 Z " fill="#C0825D" transform="translate(285,189)"/>
<path d="M0 0 C1.98 0 3.96 0 6 0 C6 0.66 6 1.32 6 2 C7.32 2 8.64 2 10 2 C10.33 2.99 10.66 3.98 11 5 C9.35153231 4.55123384 7.70626545 4.09069512 6.0625 3.625 C5.14597656 3.36976563 4.22945312 3.11453125 3.28515625 2.8515625 C1 2 1 2 0 0 Z " fill="#995730" transform="translate(217,314)"/>
<path d="M0 0 C1.60433809 0.47859241 3.20846416 0.95789558 4.8125 1.4375 C6.15248047 1.83775391 6.15248047 1.83775391 7.51953125 2.24609375 C9.35473055 2.80387873 11.18033726 3.39344575 13 4 C12.67 4.66 12.34 5.32 12 6 C10.1838018 5.57811541 8.37205927 5.13700835 6.5625 4.6875 C5.55316406 4.44386719 4.54382813 4.20023437 3.50390625 3.94921875 C2.26447266 3.47935547 2.26447266 3.47935547 1 3 C0.67 2.01 0.34 1.02 0 0 Z " fill="#B8774C" transform="translate(281,294)"/>
<path d="M0 0 C1.65 0 3.3 0 5 0 C3.88333826 3.34998521 3.25305075 3.79340222 0.4375 5.6875 C-0.20316406 6.12449219 -0.84382813 6.56148438 -1.50390625 7.01171875 C-1.99761719 7.33785156 -2.49132812 7.66398437 -3 8 C-2.67 6.68 -2.34 5.36 -2 4 C-1.34 4 -0.68 4 0 4 C0 2.68 0 1.36 0 0 Z " fill="#965026" transform="translate(325,292)"/>
<path d="M0 0 C0.66 1.32 1.32 2.64 2 4 C1.195625 4.268125 0.39125 4.53625 -0.4375 4.8125 C-1.283125 5.204375 -2.12875 5.59625 -3 6 C-3.33 6.99 -3.66 7.98 -4 9 C-4.25 6.75 -4.25 6.75 -4 4 C-2 1.6875 -2 1.6875 0 0 Z " fill="#4C200D" transform="translate(225,217)"/>
<path d="M0 0 C2.48440102 2.16034872 3.58789525 3.70316202 4 7 C3.67 7.99 3.34 8.98 3 10 C2.34 10 1.68 10 1 10 C1 9.34 1 8.68 1 8 C0.34 7.67 -0.32 7.34 -1 7 C-0.835 6.21625 -0.67 5.4325 -0.5 4.625 C0.0623707 2.11791961 0.0623707 2.11791961 0 0 Z " fill="#915329" transform="translate(473,184)"/>
<path d="M0 0 C2 2 2 2 2.375 5.375 C2 9 2 9 0 11.4375 C-0.99 12.2109375 -0.99 12.2109375 -2 13 C-1.855625 12.39671875 -1.71125 11.7934375 -1.5625 11.171875 C-1.2840625 9.97304687 -1.2840625 9.97304687 -1 8.75 C-0.814375 7.96109375 -0.62875 7.1721875 -0.4375 6.359375 C0.12154828 3.74443998 0.12154828 3.74443998 0 0 Z " fill="#4E1D08" transform="translate(456,185)"/>
<path d="M0 0 C0.66 0.99 1.32 1.98 2 3 C0.02 4.32 -1.96 5.64 -4 7 C-4.66 6.67 -5.32 6.34 -6 6 C-4.02 4.02 -2.04 2.04 0 0 Z M-11 6 C-8.525 6.495 -8.525 6.495 -6 7 C-6.99 7.33 -7.98 7.66 -9 8 C-9.66 7.34 -10.32 6.68 -11 6 Z " fill="#CC885E" transform="translate(267,184)"/>
<path d="M0 0 C6.4 0.36923077 6.4 0.36923077 9.4375 3.5625 C9.953125 4.366875 10.46875 5.17125 11 6 C6.95743617 4.77782954 3.50711041 3.37245704 0 1 C0 0.67 0 0.34 0 0 Z " fill="#40251E" transform="translate(213,315)"/>
<path d="M0 0 C0.66 0.33 1.32 0.66 2 1 C0.71186658 1.83878455 -0.58063256 2.67086783 -1.875 3.5 C-2.59429687 3.9640625 -3.31359375 4.428125 -4.0546875 4.90625 C-6 6 -6 6 -8 6 C-7 3 -7 3 -3.5625 1.25 C-2.386875 0.8375 -1.21125 0.425 0 0 Z " fill="#9A5832" transform="translate(305,311)"/>
<path d="M0 0 C0.66 0 1.32 0 2 0 C0.92289822 4.30840713 -0.03947516 7.63576723 -3 11 C-3.66 10.67 -4.32 10.34 -5 10 C-4.360625 9.0925 -3.72125 8.185 -3.0625 7.25 C-1.38571047 4.60778619 -0.46310002 3.0101501 0 0 Z " fill="#3B221F" transform="translate(164,298)"/>
<path d="M0 0 C0.66 0 1.32 0 2 0 C2.66 0.66 3.32 1.32 4 2 C4.66 2.33 5.32 2.66 6 3 C5.67 3.33 5.34 3.66 5 4 C4.76924918 5.34747084 4.58846937 6.70377565 4.4375 8.0625 C4.293125 9.361875 4.14875 10.66125 4 12 C3.67 12 3.34 12 3 12 C2 8 1 4 0 0 Z " fill="#BB7746" transform="translate(297,286)"/>
<path d="M0 0 C0.66 0 1.32 0 2 0 C2.66 3.63 3.32 7.26 4 11 C3.34 11 2.68 11 2 11 C-0.67927341 6.98108988 -0.15601248 4.75838077 0 0 Z " fill="#AD6E42" transform="translate(346,283)"/>
<path d="M0 0 C3.35915158 1.43963639 5.71624938 3.12416589 8 6 C7.75 8.25 7.75 8.25 7 10 C7 9.01 7 8.02 7 7 C6.01 6.67 5.02 6.34 4 6 C4 5.34 4 4.68 4 4 C2.68 3.34 1.36 2.68 0 2 C0 1.34 0 0.68 0 0 Z " fill="#522209" transform="translate(367,281)"/>
<path d="M0 0 C0.99 0 1.98 0 3 0 C2.71125 0.515625 2.4225 1.03125 2.125 1.5625 C0.71219973 4.62356725 -0.1248517 7.74944918 -1 11 C-1.33 11 -1.66 11 -2 11 C-2.05399736 9.54207116 -2.09279177 8.08357288 -2.125 6.625 C-2.15980469 5.40683594 -2.15980469 5.40683594 -2.1953125 4.1640625 C-2 2 -2 2 0 0 Z " fill="#4B1D0A" transform="translate(350,279)"/>
<path d="M0 0 C0.99 0 1.98 0 3 0 C3 0.66 3 1.32 3 2 C4.32 2.33 5.64 2.66 7 3 C6.67 3.66 6.34 4.32 6 5 C4.35 4.67 2.7 4.34 1 4 C0.67 2.68 0.34 1.36 0 0 Z " fill="#3B1B18" transform="translate(414,256)"/>
<path d="M0 0 C3.90381822 3.90381822 3.56244183 5.66179036 4 11 C3.01 11.495 3.01 11.495 2 12 C1.34 8.04 0.68 4.08 0 0 Z " fill="#55230C" transform="translate(353,187)"/>
<path d="M0 0 C0.66 0.33 1.32 0.66 2 1 C-0.46153846 5.8 -0.46153846 5.8 -3.1875 6.8125 C-3.785625 6.874375 -4.38375 6.93625 -5 7 C-5 7.66 -5 8.32 -5 9 C-5.66 8.67 -6.32 8.34 -7 8 C-4.69 5.36 -2.38 2.72 0 0 Z " fill="#3F2823" transform="translate(48,182)"/>
<path d="M0 0 C1.52299523 2.93720508 2.80100302 5.9168649 4 9 C2.35 8.67 0.7 8.34 -1 8 C-1.125 2.25 -1.125 2.25 0 0 Z " fill="#C88359" transform="translate(243,176)"/>
<path d="M0 0 C2.97 0.495 2.97 0.495 6 1 C5.01 3.64 4.02 6.28 3 9 C2.67 9 2.34 9 2 9 C1.34 6.03 0.68 3.06 0 0 Z " fill="#BA7445" transform="translate(393,170)"/>
<path d="M0 0 C4.33168317 -0.26252625 7.8803623 0.70756464 12 2 C12 2.66 12 3.32 12 4 C10.1858073 3.71905418 8.37364999 3.42493567 6.5625 3.125 C5.04849609 2.88136719 5.04849609 2.88136719 3.50390625 2.6328125 C2.67761719 2.42398437 1.85132813 2.21515625 1 2 C0.67 1.34 0.34 0.68 0 0 Z " fill="#96542E" transform="translate(229,319)"/>
<path d="M0 0 C2.74277578 3.19990508 4.6302836 6.00499382 6 10 C5.01 9.67 4.02 9.34 3 9 C2.67 8.01 2.34 7.02 2 6 C1.01 5.67 0.02 5.34 -1 5 C-0.67 3.35 -0.34 1.7 0 0 Z " fill="#3F241F" transform="translate(68,261)"/>
<path d="M0 0 C0.33 0.66 0.66 1.32 1 2 C0.34 2 -0.32 2 -1 2 C-1.33 3.32 -1.66 4.64 -2 6 C-4.31 6 -6.62 6 -9 6 C-6.11912454 3.59927045 -3.43595166 1.52708963 0 0 Z " fill="#B67445" transform="translate(468,248)"/>
<path d="M0 0 C0.99 0 1.98 0 3 0 C4.32229189 2.64458379 4.09677194 4.67761301 4.0625 7.625 C4.05347656 8.62789062 4.04445313 9.63078125 4.03515625 10.6640625 C4.02355469 11.43492187 4.01195312 12.20578125 4 13 C3.34 13 2.68 13 2 13 C2.03480469 12.09507812 2.03480469 12.09507812 2.0703125 11.171875 C2.08835937 10.37265625 2.10640625 9.5734375 2.125 8.75 C2.14820313 7.96109375 2.17140625 7.1721875 2.1953125 6.359375 C1.9828378 3.79268059 1.28654105 2.2083933 0 0 Z " fill="#C2825B" transform="translate(288,219)"/>
<path d="M0 0 C3.99500618 1.3697164 6.80009492 3.25722422 10 6 C5.545 5.01 5.545 5.01 1 4 C0.67 2.68 0.34 1.36 0 0 Z " fill="#412721" transform="translate(146,167)"/>
<path d="M0 0 C0.33 0 0.66 0 1 0 C1.3125 3.25 1.3125 3.25 1 7 C-1.5 9.4375 -1.5 9.4375 -4 11 C-4.66 10.34 -5.32 9.68 -6 9 C-5.01 9 -4.02 9 -3 9 C-2.01 6.03 -1.02 3.06 0 0 Z " fill="#592A11" transform="translate(239,291)"/>
<path d="M0 0 C2.31 1.65 4.62 3.3 7 5 C6.67 5.99 6.34 6.98 6 8 C3.5625 6.8125 3.5625 6.8125 1 5 C0.1875 2.3125 0.1875 2.3125 0 0 Z " fill="#361B15" transform="translate(315,165)"/>
<path d="M0 0 C1.11375 0.598125 2.2275 1.19625 3.375 1.8125 C4.00148438 2.14894531 4.62796875 2.48539063 5.2734375 2.83203125 C7 4 7 4 9 7 C6.36 6.34 3.72 5.68 1 5 C0.67 3.35 0.34 1.7 0 0 Z " fill="#99562C" transform="translate(444,156)"/>
<path d="M0 0 C0.226875 0.556875 0.45375 1.11375 0.6875 1.6875 C2.35896766 4.63246684 4.55276352 6.68156544 7 9 C4.625 8.6875 4.625 8.6875 2 8 C-0.1519437 4.77208445 -0.20086443 3.71599191 0 0 Z " fill="#BF7848" transform="translate(217,293)"/>
<path d="M0 0 C0.66 0 1.32 0 2 0 C0.90931332 3.77545388 0.0916909 6.47043472 -3 9 C-3.25532751 5.93606987 -3.21861333 4.36766788 -1.625 1.6875 C-0.820625 0.8521875 -0.820625 0.8521875 0 0 Z " fill="#975731" transform="translate(477,271)"/>
<path d="M0 0 C2.5 2.3125 2.5 2.3125 5 5 C5 5.99 5 6.98 5 8 C3.0625 7.375 3.0625 7.375 1 6 C0.25 2.875 0.25 2.875 0 0 Z " fill="#C7835A" transform="translate(410,256)"/>
<path d="M0 0 C2.6875 -0.3125 2.6875 -0.3125 6 0 C8.875 2.5 8.875 2.5 11 5 C10.29875 4.71125 9.5975 4.4225 8.875 4.125 C5.94547497 2.97866412 2.99078347 1.97374346 0 1 C0 0.67 0 0.34 0 0 Z " fill="#50200B" transform="translate(260,258)"/>
<path d="M0 0 C2.97 0.99 5.94 1.98 9 3 C8.67 3.99 8.34 4.98 8 6 C4.63408134 4.55746343 2.48952921 2.66735273 0 0 Z " fill="#532009" transform="translate(376,253)"/>
<path d="M0 0 C-0.66 1.32 -1.32 2.64 -2 4 C-4.97 3.505 -4.97 3.505 -8 3 C-5.36657694 0.36657694 -3.69534435 0 0 0 Z " fill="#C78257" transform="translate(454,200)"/>
<path d="M0 0 C-3.25852365 2.1723491 -6.59244728 4.07119658 -10 6 C-10 5.01 -10 4.02 -10 3 C-6.62637846 0.39749195 -4.23092172 -0.36265043 0 0 Z " fill="#B47447" transform="translate(260,162)"/>
<path d="M0 0 C0 0.66 0 1.32 0 2 C-1.11375 2.474375 -2.2275 2.94875 -3.375 3.4375 C-5.26710994 4.25306463 -7.15712709 5.07856355 -9 6 C-8.75 4.125 -8.75 4.125 -8 2 C-5.06004981 -0.02755186 -3.72295997 0 0 0 Z " fill="#BA7846" transform="translate(385,160)"/>
<path d="M0 0 C0.556875 0.226875 1.11375 0.45375 1.6875 0.6875 C-5.0625 4.6875 -5.0625 4.6875 -7.3125 4.6875 C-7.3125 4.0275 -7.3125 3.3675 -7.3125 2.6875 C-3.15982824 -0.42700382 -3.15982824 -0.42700382 0 0 Z " fill="#945632" transform="translate(439.3125,314.3125)"/>
<path d="M0 0 C-0.66 1.32 -1.32 2.64 -2 4 C-4.86724686 3.42655063 -5.8614515 3.1385485 -8 1 C-2.25 -1.125 -2.25 -1.125 0 0 Z " fill="#41231D" transform="translate(129,283)"/>
<path d="M0 0 C2.25 0.25 2.25 0.25 4 1 C2.35 2.65 0.7 4.3 -1 6 C-1.99 5.34 -2.98 4.68 -4 4 C-2.25 1.9375 -2.25 1.9375 0 0 Z " fill="#C48556" transform="translate(218,191)"/>
<path d="M0 0 C0.66 0.33 1.32 0.66 2 1 C0.71480435 3.86697492 -0.57129254 5.97607712 -3 8 C-3.66 8 -4.32 8 -5 8 C-5 7.01 -5 6.02 -5 5 C-4.360625 4.731875 -3.72125 4.46375 -3.0625 4.1875 C-0.66868314 3.11332248 -0.66868314 3.11332248 0 0 Z " fill="#59280F" transform="translate(266,181)"/>
<path d="M0 0 C0.33 0.66 0.66 1.32 1 2 C0.06421005 4.35981813 -0.93347808 6.69631264 -2 9 C-2.33 8.34 -2.66 7.68 -3 7 C-3.66 6.67 -4.32 6.34 -5 6 C-3.35 4.02 -1.7 2.04 0 0 Z " fill="#97532B" transform="translate(192,181)"/>
<path d="M0 0 C0.556875 0.226875 1.11375 0.45375 1.6875 0.6875 C-2.74326923 3.76442308 -2.74326923 3.76442308 -5.625 3.375 C-6.4603125 3.0346875 -6.4603125 3.0346875 -7.3125 2.6875 C-2.88173077 -0.38942308 -2.88173077 -0.38942308 0 0 Z " fill="#451A0B" transform="translate(216.3125,160.3125)"/>
<path d="M0 0 C4.21912747 0.4794463 6.79663178 1.16625119 10 4 C9.01 4.495 9.01 4.495 8 5 C6.0546875 4.22265625 6.0546875 4.22265625 3.875 3.0625 C3.15054687 2.68222656 2.42609375 2.30195313 1.6796875 1.91015625 C1.12539063 1.60980469 0.57109375 1.30945313 0 1 C0 0.67 0 0.34 0 0 Z " fill="#985430" transform="translate(286,155)"/>
<path d="M0 0 C0.75 1.75 0.75 1.75 1 4 C-0.8125 6.25 -0.8125 6.25 -3 8 C-3.66 8 -4.32 8 -5 8 C-5 7.34 -5 6.68 -5 6 C-4.34 5.67 -3.68 5.34 -3 5 C-2.67 4.01 -2.34 3.02 -2 2 C-1.34 2 -0.68 2 0 2 C0 1.34 0 0.68 0 0 Z " fill="#4E1D05" transform="translate(427,298)"/>
<path d="M0 0 C0.99 0.33 1.98 0.66 3 1 C3 1.66 3 2.32 3 3 C0.69 3.33 -1.62 3.66 -4 4 C-2.68 2.68 -1.36 1.36 0 0 Z " fill="#C98659" transform="translate(427,260)"/>
<path d="M0 0 C0.2475 0.639375 0.495 1.27875 0.75 1.9375 C1.81562433 4.18741541 1.81562433 4.18741541 4.125 4.75 C4.74375 4.8325 5.3625 4.915 6 5 C6 5.66 6 6.32 6 7 C4.33388095 7.042721 2.66617115 7.04063832 1 7 C0 6 0 6 -0.0625 2.9375 C-0.041875 1.968125 -0.02125 0.99875 0 0 Z " fill="#5A250D" transform="translate(235,238)"/>
<path d="M0 0 C2.15377564 2.62198774 3.40072174 4.64404172 4 8 C3.01 8 2.02 8 1 8 C-0.35439668 5.29120665 -0.06501451 2.99066732 0 0 Z " fill="#93542B" transform="translate(339,200)"/>
<path d="M0 0 C0.66 0 1.32 0 2 0 C1.375 1.9375 1.375 1.9375 0 4 C-3.125 4.75 -3.125 4.75 -6 5 C-5.195625 4.360625 -4.39125 3.72125 -3.5625 3.0625 C-1.7249496 1.59396498 -1.7249496 1.59396498 0 0 Z " fill="#501F08" transform="translate(301,200)"/>
<path d="M0 0 C0.66 0.33 1.32 0.66 2 1 C2 2.65 2 4.3 2 6 C1.34 6 0.68 6 0 6 C-0.33 6.66 -0.66 7.32 -1 8 C-1.125 2.25 -1.125 2.25 0 0 Z " fill="#BA7642" transform="translate(220,181)"/>
<path d="M0 0 C3.465 1.98 3.465 1.98 7 4 C7 4.99 7 5.98 7 7 C5.82780457 6.21654285 4.66236332 5.42297164 3.5 4.625 C2.8503125 4.18414062 2.200625 3.74328125 1.53125 3.2890625 C1.0259375 2.86367187 0.520625 2.43828125 0 2 C0 1.34 0 0.68 0 0 Z " fill="#4C1D08" transform="translate(438,169)"/>
</svg>
